<?xml version="1.0" encoding="utf-8"?>
<!-- Generator: Adobe Illustrator 24.3.0, SVG Export Plug-In . SVG Version: 6.00 Build 0)  -->
<svg version="1.1" id="Layer_1" xmlns="http://www.w3.org/2000/svg" xmlns:xlink="http://www.w3.org/1999/xlink" x="0px" y="0px"
	 viewBox="0 0 1000 858.3" style="enable-background:new 0 0 1000 858.3;" xml:space="preserve">
<style type="text/css">
	.st0{opacity:0.15;fill:#807D7D;enable-background:new    ;}
	.st1{fill:#CECECE;}
	.st2{fill:url(#SVGID_1_);}
	.st3{fill:url(#SVGID_2_);}
	.st4{fill:url(#SVGID_3_);}
	.st5{fill:url(#SVGID_4_);}
	.st6{fill:url(#SVGID_5_);}
	.st7{fill:url(#SVGID_6_);}
	.st8{fill:url(#SVGID_7_);}
	.st9{fill:url(#SVGID_8_);}
	.st10{fill:url(#SVGID_9_);}
	.st11{fill:#AB5A43;}
	.st12{fill:url(#SVGID_10_);}
	.st13{fill:url(#SVGID_11_);}
	.st14{fill:url(#SVGID_12_);}
	.st15{fill:url(#SVGID_13_);}
	.st16{fill:#EA5436;}
	.st17{fill:url(#SVGID_14_);}
	.st18{fill:#8E4537;}
	.st19{fill:#FFFFFF;}
	.st20{fill:#EF5433;}
	.st21{fill:#FFFEF5;}
	.st22{opacity:0.5;fill:#C8EAFA;enable-background:new    ;}
	.st23{fill:url(#SVGID_15_);}
	.st24{fill:url(#SVGID_16_);}
	.st25{fill:url(#SVGID_17_);}
	.st26{fill:url(#SVGID_18_);}
	.st27{fill:url(#SVGID_19_);}
	.st28{fill:#BAC4E4;}
	.st29{fill:url(#SVGID_20_);}
	.st30{fill:url(#SVGID_21_);}
	.st31{fill:url(#SVGID_22_);}
	.st32{fill:url(#SVGID_23_);}
	.st33{fill:url(#SVGID_24_);}
	.st34{fill:#BBBBBB;}
	.st35{fill:url(#SVGID_25_);}
	.st36{fill:url(#SVGID_26_);}
	.st37{fill:url(#SVGID_27_);}
	.st38{fill:url(#SVGID_28_);}
	.st39{fill:url(#SVGID_29_);}
	.st40{fill:url(#SVGID_30_);}
	.st41{fill:url(#SVGID_31_);}
	.st42{fill:url(#SVGID_32_);}
	.st43{fill:url(#SVGID_33_);}
	.st44{fill:url(#SVGID_34_);}
	.st45{fill:url(#SVGID_35_);}
	.st46{fill:url(#SVGID_36_);}
	.st47{fill:url(#SVGID_37_);}
	.st48{fill:url(#SVGID_38_);}
	.st49{fill:url(#SVGID_39_);}
	.st50{fill:url(#SVGID_40_);}
	.st51{fill:url(#SVGID_41_);}
	.st52{fill:url(#SVGID_42_);}
	.st53{fill:url(#SVGID_43_);}
	.st54{fill:url(#SVGID_44_);}
	.st55{fill:url(#SVGID_45_);}
	.st56{fill:#F9F9F9;}
	.st57{fill:url(#SVGID_46_);}
	.st58{fill:url(#SVGID_47_);}
	.st59{fill:url(#SVGID_48_);}
	.st60{fill:url(#SVGID_49_);}
	.st61{fill:url(#SVGID_50_);}
	.st62{fill:#69BE60;}
	.st63{opacity:0.2;fill:#FFFFFF;enable-background:new    ;}
	.st64{fill:#4FAA47;}
	.st65{fill:#F26850;}
	.st66{fill:#CF3E27;}
	.st67{fill:#F48573;}
	.st68{fill:#BABBC3;}
	.st69{fill:url(#SVGID_51_);}
	.st70{fill:#F9BFC2;}
	.st71{fill:#FED65E;}
	.st72{fill:#312B30;}
	.st73{fill:url(#SVGID_52_);}
	.st74{fill:url(#SVGID_53_);}
	.st75{fill:url(#SVGID_54_);}
	.st76{fill:#F19EA5;}
	.st77{fill:url(#SVGID_55_);}
	.st78{fill:url(#SVGID_56_);}
	.st79{fill:url(#SVGID_57_);}
	.st80{fill:#AAD037;}
	.st81{fill:url(#SVGID_58_);}
	.st82{fill:url(#SVGID_59_);}
	.st83{fill:url(#SVGID_60_);}
	.st84{fill:url(#SVGID_61_);}
	.st85{fill:url(#SVGID_62_);}
	.st86{fill:url(#SVGID_63_);}
	.st87{fill:url(#SVGID_64_);}
	.st88{fill:url(#SVGID_65_);}
	.st89{fill:url(#SVGID_66_);}
	.st90{fill:#AB5943;}
	.st91{fill:#525252;}
	.st92{fill:#B0B0B0;}
	.st93{fill:#D8AD90;}
	.st94{fill:#A37857;}
	.st95{fill:#EDEDEE;}
	.st96{opacity:0.2;fill:#333333;enable-background:new    ;}
	.st97{fill:url(#SVGID_67_);}
	.st98{fill:url(#SVGID_68_);}
	.st99{fill:url(#SVGID_69_);}
	.st100{fill:url(#SVGID_70_);}
	.st101{fill:url(#SVGID_71_);}
	.st102{fill:url(#SVGID_72_);}
</style>
<ellipse class="st0" cx="477.4" cy="809.2" rx="443.3" ry="42.9"/>
<path class="st1" d="M43.7,379.3c4.5,131.1,74,299.7,184,322.7c101.7,21.2,151.5-100.2,262.9-78.7c120.8,23.3,134.1,180,235.6,175.4
	c57-2.5,127.4-59.4,175.8-112.4c2.3-2.5,4.3-5.3,6.5-8.8C978.1,568.9,946.1,296,796.8,216c-77.9-41.7-107.3,12.2-227.3-16.7
	C381.8,154.1,353-2.6,248.9,6.7C136.6,16.8,38,211,43.7,379.3z"/>
<g>
	
		<linearGradient id="SVGID_1_" gradientUnits="userSpaceOnUse" x1="-1083.3549" y1="-359.1851" x2="-974.7828" y2="-359.1851" gradientTransform="matrix(1 0 0 1 1951.4408 900)">
		<stop  offset="0" style="stop-color:#C06C84"/>
		<stop  offset="6.739396e-02" style="stop-color:#B66A83"/>
		<stop  offset="0.3186" style="stop-color:#9B6481"/>
		<stop  offset="0.5626" style="stop-color:#896180"/>
		<stop  offset="0.7942" style="stop-color:#7E5E7F"/>
		<stop  offset="1" style="stop-color:#7A5E7E"/>
	</linearGradient>
	<path class="st2" d="M975.2,553.1c-0.1,0.4-0.2,0.8-0.3,1.2c-0.3,1.1-0.6,2.2-0.9,3.3c0,0.1-0.1,0.1-0.1,0.2
		c-6.9,20.8-25.4,35.5-46.2,36.7l0,0c-1,0-2.1,0.3-3.3,0.4c-0.1,0-0.2,0.1-0.3,0.1c-5,0.2-10.2-0.3-15.3-1.6
		c-29-7.4-46.5-37.1-39-66.1c2.7-10.6,8.7-19.7,16.2-26.5c1.8-1.6,3.7-3.3,6-4.6l0,0c11.8-8.6,28.3-11.9,44.1-7.8
		c6,1.5,11.3,4,16.2,7.2l0,0C970.7,507.7,980.5,530.4,975.2,553.1z M897,501.9l17.2,18.2c3.5,3.8,9.5,3.6,12.8-0.3l17.3-20
		c-3.3-1.7-6.7-3.2-10.5-4.1C920.9,492.5,907.6,495.1,897,501.9z M877.5,552.2l21.8-10.2c4.6-2.1,6.4-7.8,3.8-12.2l-13-22.2
		c-5.8,5.7-10.2,13-12.4,21.5C875.4,537,875.5,545,877.5,552.2z M919.4,587l-5.1-26.4c-0.9-5-5.9-8-10.8-6.7l-23.1,6.4
		c5.7,12.1,16.5,21.7,30.4,25.3C913.7,586.4,916.6,586.9,919.4,587z M932.9,543.4c1.5-5.8-2-11.7-7.8-13.2s-11.7,2-13.2,7.8
		s2,11.7,7.8,13.2S931.4,549.3,932.9,543.4z M964.8,559.3l-23-4.8c-5-1-9.8,2.4-10.4,7.4l-2.9,24.7
		C944.4,584.6,958.3,574.4,964.8,559.3z M951.3,504.5l-11.1,24.5c-2,4.5,0.1,9.7,4.6,11.6l23,9.4
		C971.4,532.5,964.5,515.1,951.3,504.5z"/>
	
		<linearGradient id="SVGID_2_" gradientUnits="userSpaceOnUse" x1="-1098.4504" y1="-358.8545" x2="-959.457" y2="-358.8545" gradientTransform="matrix(1 0 0 1 1951.4408 900)">
		<stop  offset="0" style="stop-color:#7A5E7E"/>
		<stop  offset="0.2058" style="stop-color:#7E5E7F"/>
		<stop  offset="0.4374" style="stop-color:#896180"/>
		<stop  offset="0.6814" style="stop-color:#9B6481"/>
		<stop  offset="0.9326" style="stop-color:#B66A83"/>
		<stop  offset="1" style="stop-color:#C06C84"/>
	</linearGradient>
	<path class="st3" d="M978,558.2l9.6,2.4l-5.8,14.8l-7.1-3.9l-6.3,8.6l6.6,5.8l-10.6,9.5l-4.8-5.3l-9.6,5.7l4.3,7.2l-13.4,4.7
		l-4.3-7.2l-8.7,1.8l-1.9,7.6l-13.8-1.5l1.4-5.7l-9.6-2.4l-1.9,7.6l-13.3-3.5l3-11.5c-2.4-1.8-5-3.8-7.4-5.6l-9.8,6.7l-7.8-11.3
		l6.5-4.5l-5.6-8.1l-4.9,3.4l-6.2-12.4l6.5-4.5l-1.2-8.8l-8.2-1.5l-0.3-14.3l8.2,1.5l1.9-11l-6.6-2.6l5.2-13.2l7.7,4.3l5.8-8.9
		l-6.1-5.4l11.8-10.6l5.6,8.1l8.1-5.6l-5.6-8.1l14.1-7.4l4,9.3l8.8-1.2l-1.2-8.8l17,0.2l-1.5,8.2l9.4,3.2l2.6-6.6l13.2,5.2l-4.3,7.7
		c2.6,2,5.3,4,8,6l5.8-6.6l9.5,10.6l-5.3,4.8l6.2,7.7l7.2-4.3l6.1,15.9l-8.7,1.8l1.8,8.7l10.1,0.5l-2,15.8l-9.6-2.4L978,558.2z
		 M974.9,554.3c7.4-29-10-58.7-39-66.1c-29-7.4-58.7,10-66.1,39c-7.4,29,10,58.7,39,66.1C937.9,600.8,967.5,583.4,974.9,554.3z"/>
</g>
<g>
	<g>
		
			<linearGradient id="SVGID_3_" gradientUnits="userSpaceOnUse" x1="1003.067" y1="-510.172" x2="1081.5663" y2="-510.172" gradientTransform="matrix(-1 0 0 1 1899.8901 900)">
			<stop  offset="0" style="stop-color:#6EC9C8"/>
			<stop  offset="0.4047" style="stop-color:#71CAC5"/>
			<stop  offset="0.8593" style="stop-color:#78CABC"/>
			<stop  offset="1" style="stop-color:#7BCBB8"/>
		</linearGradient>
		<path class="st4" d="M844.4,352.9L844.4,352.9c4-1.4,8.2-2.2,12.7-2.3c11.8-0.2,22.5,5,29.8,13.1l0,0c1.2,1.3,2.3,2.7,3.3,4.3
			c4.1,6.1,6.5,13.4,6.6,21.4c0.3,21.7-17.1,39.5-38.7,39.7c-3.9,0-7.5-0.5-11-1.4c-0.1,0-0.1,0-0.2-0.1c-0.7-0.2-1.5-0.4-2.2-0.7
			l0,0c-14.4-5-24.8-18.1-26.2-33.8c0-0.1,0-0.2,0-0.3c-0.1-0.8-0.1-1.6-0.1-2.4c0-0.3,0-0.6,0-0.9
			C818.5,372.6,829.3,358.3,844.4,352.9z M857.2,356.3c-2.7,0-5.5,0.4-8,1.1l8.8,17c1.7,3.3,5.9,4.4,9,2.3l15.2-9.9
			C875.8,360.3,867,356.2,857.2,356.3z M891.1,389.4c-0.1-6.3-1.9-12.2-5-17.2l-13,13.3c-2.5,2.6-2.3,6.9,0.6,9.3l13.5,10.9
			C889.8,400.8,891.2,395.3,891.1,389.4z M858,423.4c10.4-0.1,19.7-5,25.7-12.5l-15.1-8.5c-3.2-1.8-7.2-0.5-8.8,2.9l-8.1,17.6
			C853.7,423.2,855.9,423.4,858,423.4z M857.7,397.7c4.4-0.1,7.8-3.7,7.7-7.9c-0.1-4.4-3.7-7.8-7.9-7.7c-4.4,0.1-7.8,3.7-7.7,7.9
			C849.8,394.3,853.3,397.7,857.7,397.7z M845.4,421l2.2-17.9c0.4-3.7-2.3-6.9-6-7l-17-0.5C826.6,407.3,834.6,416.9,845.4,421z
			 M824.1,388.6l17.7-2.6c3.5-0.5,5.9-3.9,5.2-7.3l-3.6-19.1C832.4,364.6,824.5,375.6,824.1,388.6z"/>
	</g>
	<g>
		
			<linearGradient id="SVGID_4_" gradientUnits="userSpaceOnUse" x1="992.0513" y1="-509.5582" x2="1091.5912" y2="-509.5582" gradientTransform="matrix(-1 0 0 1 1899.8901 900)">
			<stop  offset="0" style="stop-color:#7BCBB8"/>
			<stop  offset="0.1407" style="stop-color:#78CABC"/>
			<stop  offset="0.5953" style="stop-color:#71CAC5"/>
			<stop  offset="1" style="stop-color:#6EC9C8"/>
		</linearGradient>
		<path class="st5" d="M815.5,385.4l-7.1,0.1l1.3-11.4l7.1,1.3l2.7-5.7l-5.7-2.7l7-10.1l4.4,4.3l5.7-4.4l-3-4.3l8.5-5.8l3,5.7
			c2.2-0.9,4.5-1.9,6.6-2.9l-1.6-6.2l10.2-1.4l0.7,5.1l7.1-0.6l0.4-6l12,2.7l-2.3,5.9l5.9,2.3l4.4-5.8l8.7,7.6l-5.3,4.7l4.7,5.3
			l5.3-4.7l6.5,9.5l-5.2,2.7l2.5,7.2l6.2-1.6l1.4,10.2l-5.1,0.7l-0.5,8l6,0.4l-2.6,10l-6-0.4l-2.3,5.9l3.8,4.3l-6.5,7.7l-2.9-3.2
			l-5.3,4.7l3.8,4.3l-7.4,6.6l-5.7-6.4c-2,0.9-4.2,1.8-6.2,2.6l0.1,8.6l-10,0.1l-0.1-5.7l-7.1,0.1l0.1,4.3l-10-1.3l-0.1-5.7
			l-5.7-2.7l-4.3,4.4l-8.7-5.6l4.3-4.4l-5.8-5.6l-4.3,3l-5.8-8.5l5.7-3l-3-7.1l-5.7,1.5l-1.5-11.4l7.1-0.1L815.5,385.4z
			 M858.1,429.1c21.7-0.3,39-18.1,38.7-39.7c-0.3-21.7-18.1-39-39.7-38.7c-21.7,0.3-39,18.1-38.7,39.7
			C818.6,412,836.4,429.4,858.1,429.1z"/>
	</g>
</g>
<g>
	
		<linearGradient id="SVGID_5_" gradientUnits="userSpaceOnUse" x1="6096.1411" y1="6425.0771" x2="5944.9932" y2="6430.5239" gradientTransform="matrix(0.8259 -0.5641 0.5641 0.8259 -8310.3604 -1684.3573)">
		<stop  offset="0" style="stop-color:#C06C84"/>
		<stop  offset="6.739396e-02" style="stop-color:#B66A83"/>
		<stop  offset="0.3186" style="stop-color:#9B6481"/>
		<stop  offset="0.5626" style="stop-color:#896180"/>
		<stop  offset="0.7942" style="stop-color:#7E5E7F"/>
		<stop  offset="1" style="stop-color:#7A5E7E"/>
	</linearGradient>
	<path class="st6" d="M403.6,289.8c-27.6-12.1-29.2-10.6-35.2-15.8c-3.9-3.4-6.6-7-8.6-10.9c-9.3-18.2-1-41.3-17.4-68.8
		c-1-1.7-19.2-31.4-52.1-40.9c-36.8-10.7-60.1,12.4-77.7-2.1c-16.4-13.6-9-46.7-17.9-48.2c-1.2-0.2-4.9-0.1-10.7,10.1
		c-13.8,24-24,76.7,2.3,102.7c28.3,28.1,72.5-0.5,90.2,24.8c11.8,16.9-2.5,37.4,3.5,75c0.9,5.4,2.1,11.2,4,17.3
		c2.9,9.4,6.6,18.6,14.5,27.2c13.4,14.5,30.9,18.5,39.3,19.9l16.8-10.4l88.9-60.7C433.6,303.8,420,297,403.6,289.8z"/>
	
		<linearGradient id="SVGID_6_" gradientUnits="userSpaceOnUse" x1="5942.8906" y1="6426.7007" x2="6086.2944" y2="6426.7007" gradientTransform="matrix(0.8259 -0.5641 0.5641 0.8259 -8310.3604 -1684.3573)">
		<stop  offset="0" style="stop-color:#C06C84"/>
		<stop  offset="6.739396e-02" style="stop-color:#B66A83"/>
		<stop  offset="0.3186" style="stop-color:#9B6481"/>
		<stop  offset="0.5626" style="stop-color:#896180"/>
		<stop  offset="0.7942" style="stop-color:#7E5E7F"/>
		<stop  offset="1" style="stop-color:#7A5E7E"/>
	</linearGradient>
	<path class="st7" d="M373.2,348.5c9-6.6,16.8-14.5,23.4-23.5c6.9-9.5,12.2-20,15.8-31.2c-0.8-0.4-1.7-0.8-2.5-1.1
		c-3.5,11-8.7,21.4-15.5,30.6c-6.6,9.1-14.7,17-23.7,23.6c-14.1-8.5-24.8-17.3-32.1-26.6c7.2-5.5,13.4-12.1,18.6-19.6
		c5.5-7.9,9.7-16.6,12.3-25.8c-0.4-0.3-0.7-0.6-1.1-1c-0.4-0.3-0.8-0.7-1.2-1.1c-2.6,9.4-6.7,18.2-12.3,26.3
		c-5,7.2-11.1,13.5-18,18.9c-5-6.9-8-14.1-9.3-21.4c-0.7-4.3-0.6-8.2-0.6-12.8c0-7.4,0.1-15.8-2.7-28.4c-1.8-8.1-5.2-22.7-12.4-35.5
		c5.2-9.4,8.6-19.3,10.2-29.7c0.9-6.1,1.2-12.4,0.8-18.6c-0.9-0.8-1.9-1.6-3-2.4v0.1c0.6,6.8,0.4,13.7-0.6,20.6
		c-1.4,9.6-4.5,18.7-9.1,27.3c-2.1-3.4-4.5-6.5-7.2-9.4c-11.2-11.5-25-14.5-39.4-15c2.4-17.7-11.4-36-14.7-40.1
		c-1,0.2-2,0.4-3.1,0.6c0.1,0.2,0.1,0.3,0.2,0.4c0.2,0.2,17.3,20.5,14.7,39c-5.1-0.1-10.3,0.2-15.5,0.4c-14,0.6-27.3,1.1-37.8-4
		c-0.1-0.1-0.3-0.2-0.4-0.2c-2.6-1.3-5.2-3.1-7.4-5.2c-3.7-3.6-6.5-8.1-8.3-13.7c3.4-2.9,7.6-7.5,10.7-14.2
		c2.4-5.3,3.4-10.4,3.6-14.6c-0.9-2-1.6-4.3-2.2-6.4c-0.4,0.3-0.6,0.7-0.6,1.2c0.3,4.5,0.1,11.3-3.3,18.6c-2.5,5.6-6,9.7-9,12.4
		c-4-15-2-36.3,5.7-63.5c-0.4-0.2-0.8-0.4-1.3-0.5c-0.3,0-0.8-0.1-1.5,0.1c-8,28.4-9.8,50.5-5.2,66.1c-0.2,0.5-0.2,1.1,0.1,1.5
		c0.1,0.2,0.3,0.3,0.5,0.4c2,5.9,5,10.8,9,14.7c2.1,2,4.4,3.7,6.7,5c-2.7,3-7.1,6.5-13.1,8.9c-4.6,1.8-9.7,2.5-14.7,2.3
		c0.5,0.9,0.9,1.9,1.4,2.9c4.9,0,9.8-0.8,14.3-2.5c3-1.1,5.6-2.5,7.7-4.1c3-2,5.2-4.2,6.9-6.1c10.9,5,24.3,4.5,38.4,3.9
		c5.3-0.2,10.6-0.4,15.9-0.3c0.1,0.1,0.2,0.1,0.3,0.1c0.3,0.1,0.6,0,0.8-0.1c9.9,0.2,19.6,1.6,28.1,6.3c-4,6.4-9.2,12.1-15.3,16.5
		c-7,5.1-15.3,8.6-23.9,10.1c-0.4,0.1-0.7,0.3-0.9,0.6c2.6,0.1,5.1,0.3,7.5,0.7c6.3-1.8,12.2-4.6,17.6-8.2c0.4-0.3,0.9-0.6,1.3-0.9
		c6.4-4.6,11.9-10.6,16.1-17.4c2.7,1.7,5.4,3.9,7.9,6.4c3.1,3.2,5.6,6.7,7.8,10.5c0,0.5,0.2,0.9,0.7,1.2l0,0
		c7,12.4,10.3,26.7,12.1,34.6c1.4,6.1,2,11.3,2.4,15.8c-6.5,1-13.1,1-19.6,0c-8.2-1.3-16.1-4.3-23.3-8.7c-0.1,1-0.2,2-0.3,3.2
		c7.1,4.3,15,7,23.1,8.3c6.7,1,13.4,1,20.2,0c0.2,3.4,0.1,6.3,0.1,9.2c0,4.5,0,8.8,0.6,13.2c1.2,7.9,4.6,15.6,10,23
		c0,0.3,0,0.7,0.3,1c0.2,0.3,0.6,0.5,0.9,0.5c7.6,9.8,18.8,19.1,33.7,28c0.1,0.1,0.2,0.2,0.4,0.2c2.3,1.4,4.7,2.7,7.2,4.1l2.6-1.8
		C377.7,351,375.5,349.8,373.2,348.5z"/>
	
		<linearGradient id="SVGID_7_" gradientUnits="userSpaceOnUse" x1="6016.0068" y1="6480.0327" x2="5823.4858" y2="6486.9702" gradientTransform="matrix(0.8259 -0.5641 0.5641 0.8259 -8310.3604 -1684.3573)">
		<stop  offset="0.3548" style="stop-color:#F7AA47"/>
		<stop  offset="1" style="stop-color:#F26C46"/>
	</linearGradient>
	<path class="st8" d="M327.2,288.4c-10.3-8.6-19.8-12.1-28.3-12.8c-27.8-2.3-48,24.2-74.6,13.3c-20.7-8.5-18.6-28.6-38.9-32.6
		c-24.7-4.9-46.7,21.6-51,28.3c-0.7,1.2-1.6,2.7-1,3.8c2.3,3.9,21-10,34-4.7c13.3,5.4,7.3,25.2,20.9,38.6c14.1,13.8,33.6,5.7,51.4,8
		c4.3,0.6,8.5,1.7,12.4,4c13.3,7.4,26.9,28.2,23.9,89l96.1-65.7C356.4,321.1,341.2,300.1,327.2,288.4z"/>
	
		<linearGradient id="SVGID_8_" gradientUnits="userSpaceOnUse" x1="5859.1792" y1="6482.5269" x2="6022.9067" y2="6482.5269" gradientTransform="matrix(0.8259 -0.5641 0.5641 0.8259 -8310.3604 -1684.3573)">
		<stop  offset="0.3548" style="stop-color:#F7AA47"/>
		<stop  offset="1" style="stop-color:#F26C46"/>
	</linearGradient>
	<path class="st9" d="M349.5,314.4c-0.7,0.2-1.2,0.9-1.1,1.6c0,0.1,2.3,13.3-24.1,40.1c-1.9-5.1-4.1-10.4-6.6-15.7
		c-6.9-14.9-10.5-22.4-17.2-27.6c-0.8-0.6-1.6-1.2-2.4-1.7c5.4-15.2-7.6-31.7-10.6-35.1c-1,0.2-1.9,0.4-3,0.6c0,0.2,0.1,0.5,0.3,0.7
		c0.2,0.2,15.6,17.3,10.8,32.3c-14.3-8-31.4-7-38.7-6.1c-1.8,0.2-3.6,0.5-5.1,0.9c-1.1-6-6.9-11.1-9.7-13.3
		c-1.2,0.1-2.4,0.2-3.7,0.3c0.1,0.4,0.3,0.7,0.6,1c0.1,0.1,9,6,10.1,12.6c-2.1,0.5-4.2,1.1-6,1.7c-6.3,1.9-11.8,3.6-20.6,2.3
		c-3.4-0.4-9.1-1.2-15.2-4.5c-3.4-1.8-6.1-4.1-8.2-6.4c8.2-9.6,7-21.4,5.6-27.5c-1.1-1.6-2.2-3.2-3.5-4.7c-0.5,0.4-0.7,1-0.4,1.6
		c0.1,0.2,6.6,16.2-3.6,28.3c-3-3.9-5-8.1-6.8-12c-0.5-1-0.9-2-1.4-3c0.2-0.4,0.2-0.9-0.1-1.3c-0.2-0.3-0.6-0.5-0.9-0.6
		c-2.1-4.1-4.7-7.6-8.8-9.7c-4.3-2.1-9.5-2.3-15.6-0.6c-1.9-3.4-5.6-4.6-7.9-5.1c-1.1,0.7-2.1,1.5-3.3,2.2c0.2,0.1,0.4,0.2,0.7,0.2
		c0.1,0,5.3,0.1,7.7,3.5c-7.6,2.7-16.8,8.5-27.4,16.9c-0.2,0.6-0.3,1.3,0,1.7s0.7,0.6,1.4,0.7c19.9-15.9,34.3-21.7,43.1-17.1
		c3.3,1.7,5.5,4.7,7.4,8.3c-7.5,4.3-14.7,4.5-14.7,4.5c-0.2,0-0.5,0.1-0.7,0.2c1,0.7,1.9,1.5,2.7,2.4c2.7-0.3,8.1-1.4,14-4.6
		c0.4,0.8,0.8,1.6,1.2,2.5c3.6,7.6,7.7,16.3,18.2,22c5,2.7,9.9,3.9,13.3,4.4c-11.1,10.3-28.1,11.9-28.3,11.9c-0.3,0-0.6,0.2-0.8,0.4
		c1,0.8,2,1.5,3.1,2.2c4.3-0.6,14.5-2.6,23.3-8.8c2.1-1.5,4.3-3.3,6.2-5.3c9,1,14.9-0.7,21.1-2.5c1.9-0.6,4-1.2,6.2-1.7
		c0.2,0.1,0.3,0.1,0.5,0.1c0.3,0,0.6-0.1,0.8-0.2c0.1-0.1,0.2-0.1,0.3-0.2c1.7-0.4,3.6-0.7,5.6-1c7.7-1,27.4-2.2,41.4,8.8
		c0.9,0.7,1.8,1.5,2.6,2.3c-22.7,17.3-46.7,16.2-46.9,16.2c-0.7,0-1.2,0.4-1.4,1c0.9,0.5,1.7,1.1,2.6,1.8c5.3,0,24.4-0.9,43.9-14.3
		c1.2-0.8,2.4-1.7,3.7-2.6c3.8,4.8,6.9,11.5,11.9,22.2c7.4,15.8,12.5,32.6,14.8,40.8c-28.7,15.3-52.8,10.5-53.1,10.5
		c-0.2,0-0.5,0-0.7,0c0,0.9,0.1,1.8,0.1,2.7c1.1,0.2,25,4.9,54.4-10.5c0.1,0.2,0.1,0.4,0.1,0.5l2.4-1.7c-1.3-5.2-4.1-14.5-7.9-25
		c23.5-23.5,26-37.4,26-42C350.7,316.3,350.1,315.3,349.5,314.4L349.5,314.4z"/>
</g>
<g>
	
		<linearGradient id="SVGID_9_" gradientUnits="userSpaceOnUse" x1="222.108" y1="1355.4919" x2="337.0522" y2="1355.4919" gradientTransform="matrix(0.9655 -0.2604 0.2604 0.9655 -422.1425 -729.1788)">
		<stop  offset="0" style="stop-color:#1B171A"/>
		<stop  offset="0.6452" style="stop-color:#312B30"/>
	</linearGradient>
	<path class="st10" d="M163.3,473.9c1.4,0.8,4,3.3,6.4,5.5c3.1,3,5.2,5.3,5.9,6.1c5.5,6,12,10.8,16.7,14.3c8,5.8,15,9.6,17.5,10.9
		c8,4.2,26.2,11.9,54.4,10.5c-0.5,4.5-1,8.9-1.5,13.3c-8.7,3.1-35.6,11.4-67.4,1.2c-11-3.5-20.3-8.5-28-14
		c-18.3-12.8-28-28.3-31-33.4C138.6,486.2,155.9,469.7,163.3,473.9z"/>
	<path class="st11" d="M263.6,523.2c0.1-0.7,0.3-1.8,1-3c0,0,0.1-0.2,0.2-0.3c0.4-0.4,1.1-0.8,3.6-2.1c0,0,1.6-0.8,5.3-2.2
		c0.6-0.2,1.4-0.5,2-0.1c0.3,0.2,0.5,0.7,0.5,1c0,0.6-0.3,1.2-0.9,1.5c-1.4,0.7-2.7,1.5-4.2,2.2c4.3-1,8.6-2.1,12.8-3.2
		c0.8-0.2,1.5,0.3,1.7,1c0.2,0.6-0.2,1.4-0.9,1.6c-2.3,0.8-4.7,1.5-7,2.3c2.4-0.4,4.9-0.8,7.2-1.2c0.7-0.2,1.5,0.2,1.8,0.8
		c0.3,0.7-0.1,1.6-1,1.9c-2.3,0.6-4.7,1.2-7,1.8c2.3-0.3,4.7-0.6,7-0.9c0.7,0,1.4,0.5,1.5,1.1c0.2,0.8-0.4,1.6-1.3,1.8
		c-2.2,0.5-4.6,1-6.8,1.4c2.1-0.3,4.3-0.6,6.4-0.9c0.6,0.2,0.9,0.7,1,1.2c0,0.6-0.3,1.1-0.8,1.3c-7.6,1.5-13.3,2.5-15.5,2.9
		c-0.5,0.1-1.5,0.2-2.7-0.2c-0.7-0.2-1.2-0.5-1.7-0.8c-1.4,0.6-2.9,1.2-4.3,1.8c-0.7-3.9-1.4-7.6-2.1-11.5
		C261,523.2,262.3,523.2,263.6,523.2z"/>
	<path class="st11" d="M191.7,794.4c0.4-8.3,0.8-16.7,1.2-25l-13.3-0.4c1.6,8.8,3.3,17.6,5,26.4c1.1,1.4,3,2.1,4.6,1.6
		C191,796.5,191.7,794.6,191.7,794.4z"/>
	
		<linearGradient id="SVGID_10_" gradientUnits="userSpaceOnUse" x1="464.421" y1="-102.6301" x2="494.3983" y2="-102.6301" gradientTransform="matrix(1 0 0 1 -283.0034 900)">
		<stop  offset="0" style="stop-color:#1B171A"/>
		<stop  offset="0.6452" style="stop-color:#312B30"/>
	</linearGradient>
	<path class="st12" d="M200.5,802.9c4,0,6.8,0,10.9-0.5c-0.3-0.4-0.6-0.6-0.7-0.7c-5.2-3-9.3-5.2-11.9-6.7l-4-1.9
		c-1.9-0.9-3-1.4-4-1.1c-0.7,0.3-0.6,0.7-1.6,1.2c-0.5,0.3-1.6,0.8-3,0.5c-1.1-0.3-1.8-1.1-2-1.5c0,0-4.4,2.4-2.4,9.2
		c1,0.2,2.5,0.5,4.3,0.7C192,803,196.4,803,200.5,802.9z"/>
	<path class="st11" d="M211.4,802.4c-4.1,0.5-6.9,0.5-10.9,0.5c-4.2,0-8.6,0-14.3-0.7c-1.7-0.2-3.3-0.5-4.3-0.7c0,0-1.8,2.1,1.1,3.9
		l28.5-0.7c0.1-0.1,0.4-0.8,0.1-1.7C211.6,802.8,211.5,802.6,211.4,802.4z"/>
	<path class="st11" d="M127.6,796.2c1.9-8.1,3.9-16.3,5.8-24.4l-13-2.9c0,9,0,17.9,0,26.9c0.8,1.6,2.4,2.5,4.2,2.4
		C126.4,798,127.4,796.4,127.6,796.2z"/>
	
		<linearGradient id="SVGID_11_" gradientUnits="userSpaceOnUse" x1="400.5442" y1="-102.2135" x2="430.3771" y2="-102.2135" gradientTransform="matrix(1 0 0 1 -283.0034 900)">
		<stop  offset="0" style="stop-color:#1B171A"/>
		<stop  offset="0.6452" style="stop-color:#312B30"/>
	</linearGradient>
	<path class="st13" d="M136.5,803.4c4,0.1,6.8,0.1,10.9-0.2c-0.2-0.4-0.6-0.6-0.7-0.7c-5.2-3.1-9.2-5.4-11.7-7l-3.9-2
		c-1.9-1-2.9-1.5-3.9-1.2c-0.7,0.2-0.6,0.6-1.7,1.2c-0.5,0.2-1.6,0.8-3,0.4c-1.1-0.3-1.7-1.2-1.9-1.5c0,0-4.4,2.3-2.6,9.2
		c1,0.2,2.5,0.5,4.3,0.8C127.9,803.2,132.3,803.3,136.5,803.4z"/>
	<path class="st11" d="M147.4,803.2c-4.1,0.3-6.9,0.3-10.9,0.2c-4.2-0.1-8.6-0.2-14.3-1.1c-1.7-0.3-3.3-0.6-4.3-0.8
		c0,0-1.9,2.1,1,3.9l28.5,0.1c0.1-0.1,0.4-0.8,0.2-1.7C147.6,803.5,147.5,803.3,147.4,803.2z"/>
	
		<linearGradient id="SVGID_12_" gradientUnits="userSpaceOnUse" x1="444.7935" y1="-288.6637" x2="484.1908" y2="-109.9682" gradientTransform="matrix(1 0 0 1 -283.0034 900)">
		<stop  offset="0" style="stop-color:#EC6B48"/>
		<stop  offset="0.6452" style="stop-color:#F5A945"/>
	</linearGradient>
	<path class="st14" d="M182,574.4c0.1,5.7,0.3,13.7,0.6,23.3c0.1,3.1,1.2,36.4,3.5,68.8c3.6,52.9,10,104.2,12.3,122.5
		c-6.3,0.5-12.5,1-18.8,1.5c-10.3-31.6-19.9-66.5-27.8-104.3c-3.9-18.7-7.1-36.9-9.8-54.4c-3.7-8.1-7.3-17.9-10.3-29.2
		c-3.8-14.4-5.4-27.3-6.1-37.9C144.3,568,163.2,571.1,182,574.4z"/>
	
		<linearGradient id="SVGID_13_" gradientUnits="userSpaceOnUse" x1="138.9734" y1="-208.9892" x2="111.8898" y2="-401.8237" gradientTransform="matrix(-0.998 -6.290000e-02 -6.290000e-02 0.998 228.0337 1009.4655)">
		<stop  offset="0" style="stop-color:#EC6B48"/>
		<stop  offset="0.6452" style="stop-color:#F5A945"/>
	</linearGradient>
	<path class="st15" d="M116.7,569.1c4.8,0.4,9.7,0.8,14.5,1.2c4.4,1.5,9.6,2.9,15.5,3.8c11.7,1.7,21.8,0.8,29.1-0.4
		c-2.5,10.2-6.5,22.3-12.8,35.1c-3.5,7-7.1,13.3-10.7,18.8c-5.7,53.1-11.4,106-17.1,159.1c-5.9,0.1-11.8,0.2-17.6,0.3
		c-5.5-32.9-9.6-72.3-9.2-116.9C108.6,632.2,112,598.2,116.7,569.1z"/>
	<path class="st11" d="M147,456.1c2.6-3.8,7.5-5.3,11.8-3.6c4.2,1.6,6.7,6,6.1,10.5c-0.5,3.9-1,7.7-1.6,11.7
		c-2.1,0.6-6.6,1.5-11.9,0.2c-4.2-1-7.1-2.9-8.8-4.2C144,465.9,145.4,461.1,147,456.1z"/>
	<path class="st16" d="M170.2,437.7c2.7-0.3,5.1-2,5.8-4.3c1-3.2-1-7.2-5.1-8.6c-0.3-3.5-3-6.2-6.1-6.6c-2.6-0.4-5.4,0.9-6.9,3.4
		c-2.1-3.4-6.1-4.7-9.3-3.4c-2.4,1-4.2,3.4-4.5,6.2c-2.1-1.2-4.7-1-6.4,0.4c-2.1,1.7-2.4,5.3-0.5,7.7c-0.3,0-4.3,0.8-5.6,4.3
		c-1.2,3.3,0.4,7.4,4.4,9.4c-2.4,1-4.3,3.1-4.5,5.2c-0.2,3.3,3.1,6.8,7.8,6.7c-1.2,3.1-0.4,6.4,1.9,8.2c2.7,2.1,6.2,1.1,6.4,1
		c1.2-3.7,3.1-8,6-12.7C159,446.2,165.7,440.8,170.2,437.7z"/>
	
		<linearGradient id="SVGID_14_" gradientUnits="userSpaceOnUse" x1="400.2352" y1="-412.0838" x2="448.2484" y2="-328.7201" gradientTransform="matrix(1 0 0 1 -283.0034 900)">
		<stop  offset="0" style="stop-color:#1B171A"/>
		<stop  offset="0.6452" style="stop-color:#312B30"/>
	</linearGradient>
	<path class="st17" d="M114.8,577.9c0.9-14.8,1.9-28,3-39.5c3.3-36.1,5.9-50.3,16.9-61.2c3.1-3.1,6-5.1,7.8-6.3
		c1.8,1.3,5.7,3.7,11.1,4.4c4.4,0.5,7.9-0.3,10-0.9c1.3,2.1,3.3,5.4,5.3,9.7c6.7,14.1,9,27.2,11.3,60.2c0.7,9.4,1.4,21.1,2,34.5
		c-11.7,1.1-24.9,1.7-39.3,1.3C132.9,579.7,123.4,579,114.8,577.9z"/>
	<path class="st18" d="M163.9,466c0.1,0.5,0.2,1,0.3,1.5c-0.2,1.7-0.5,3.5-0.7,5.2c-1.3-0.3-4.2-1.3-6.7-3.9c-2.7-2.7-3.7-5.9-4-7.2
		c1.2,0,2.9,0.1,4.7,0.6C160.7,463.2,162.7,465,163.9,466z"/>
	<path class="st11" d="M153.3,456.3c-1.5,0.5-2.5,0.1-2.9,0c-2.9-1.3-2.9-6.6-1.3-8c0.8-0.7,1.7-0.7,1.7-0.7c0.1,0,0.5,0,0.9,0.2
		c1.8,0.7,2.6,3.5,2.6,3.5c0.3-0.4,0.7-0.7,1-1.1c-2.3-6-0.2-12.4,4.4-14.9c4.7-2.5,10,0.1,10.4,0.3c0.8,1.6,1.6,3.4,2.4,5.2
		c1.1,2.5,2,5,2.7,7.3c0.4,0.3,0.9,0.7,1,1.2c0.1,0.5-0.3,0.8-0.5,1.5c-0.3,0.8-0.1,1.5,0,2.1c0.3,2.4,0.3,6.6,0.1,8.7
		c-0.2,2.6-0.3,4.1-1,5c-3.2,4.1-13,0.3-16.9-1.2c-1.7-0.6-4.1-1.7-4.5-3.7c-0.1-0.4-0.1-1-0.2-2.3C153.3,458,153.3,457,153.3,456.3
		z"/>
	<path class="st19" d="M170.3,458.5c0.3,2.7,2.7,4.8,5.5,4.6c0-0.5,0.1-1,0.1-1.5c0.1-0.9,0.1-2.3,0.1-3.8L170.3,458.5z"/>
	<g>
		<g>
			<path class="st20" d="M230.4,490.7c-0.8-7.5,4.6-14.5,12.1-15.3l3.4-0.4c7.5-0.8,14.5,4.6,15.3,12.1l1.8,16.1l-30.8,3.6
				L230.4,490.7z"/>
			<path class="st21" d="M262.9,503.3l1.8,16.1c0.8,7.5-4.6,14.5-12.1,15.3l-3.4,0.4c-7.5,0.8-14.5-4.6-15.3-12.1l-1.8-16.2
				L262.9,503.3z"/>
		</g>
		<g>
			<path class="st20" d="M250.5,531.7c1.5-7.4,9-12.2,16.4-10.7l3.4,0.7c7.4,1.5,12.2,9,10.7,16.4l-3.4,15.9l-30.3-6.4L250.5,531.7z
				"/>
			<path class="st21" d="M277.5,554l-3.4,15.9c-1.5,7.4-9,12.2-16.4,10.7l-3.4-0.7c-7.4-1.5-12.2-9-10.7-16.4l3.4-15.9L277.5,554z"
				/>
		</g>
		<rect x="219.8" y="443.6" class="st22" width="76" height="146.3"/>
		
			<linearGradient id="SVGID_15_" gradientUnits="userSpaceOnUse" x1="1597.5359" y1="-456.3536" x2="1686.838" y2="-456.3536" gradientTransform="matrix(-1 0 0 1 1899.8901 900)">
			<stop  offset="0" style="stop-color:#F26C46"/>
			<stop  offset="0.6452" style="stop-color:#F7AA47"/>
		</linearGradient>
		<polygon class="st23" points="213.1,454.9 302.4,454.9 302.4,432.3 213.1,432.3 		"/>
	</g>
	
		<linearGradient id="SVGID_16_" gradientUnits="userSpaceOnUse" x1="252.3834" y1="1435.9214" x2="176.4034" y2="1337.7806" gradientTransform="matrix(0.9406 -0.3394 0.3394 0.9406 -482.0178 -704.1759)">
		<stop  offset="0" style="stop-color:#1B171A"/>
		<stop  offset="0.6452" style="stop-color:#312B30"/>
	</linearGradient>
	<path class="st24" d="M238.4,544.9c-39-18.1-56.8-34.5-65.8-46.7c0,0-14.4-19.4-28.9-20.5c-1.1-0.1-4.2-0.3-6.9,1.5
		c-3.9,2.4-4.8,7-5.2,8.6c-1,4.6-0.4,12.3,11,26.2c13.7,16.7,29.1,25.3,31.2,26.4c24.8,13.5,49.5,14.9,63.8,14.5
		C238,551.5,238.2,548.2,238.4,544.9z"/>
	<path class="st11" d="M239.2,545.2c0.3-0.6,1-1.5,2.1-2.2c0,0,0.2-0.1,0.3-0.2c0.5-0.2,1.3-0.3,4.1-0.5c0,0,1.8-0.1,5.7,0
		c0.6,0,1.5,0.1,1.9,0.7c0.2,0.3,0.2,0.8,0.1,1.2c-0.2,0.6-0.7,1-1.4,1.1c-1.5,0.1-3.2,0.3-4.7,0.4c4.4,0.7,8.8,1.4,13,2.1
		c0.8,0.1,1.3,0.8,1.2,1.6c-0.1,0.7-0.7,1.2-1.4,1.1c-2.4-0.2-4.9-0.4-7.3-0.6c2.3,0.6,4.8,1.2,7.1,1.7c0.8,0.1,1.3,0.7,1.3,1.4
		c0,0.8-0.8,1.5-1.7,1.4c-2.4-0.4-4.8-0.7-7.2-1.1c2.2,0.6,4.5,1.3,6.8,1.9c0.7,0.3,1.1,1,1,1.6c-0.1,0.8-1,1.3-1.9,1.1
		c-2.2-0.4-4.6-0.9-6.8-1.3c2,0.6,4.2,1.1,6.2,1.7c0.4,0.4,0.6,1,0.4,1.5c-0.2,0.5-0.7,0.9-1.2,0.9c-7.6-1.6-13.3-2.9-15.3-3.5
		c-0.5-0.1-1.4-0.4-2.4-1.2c-0.6-0.5-0.9-1-1.2-1.4c-1.5,0-3.1,0-4.6,0.1c0.8-3.8,1.7-7.6,2.5-11.4
		C236.8,544.1,238,544.7,239.2,545.2z"/>
</g>
<linearGradient id="SVGID_17_" gradientUnits="userSpaceOnUse" x1="1254.8586" y1="-174.9043" x2="271.9345" y2="-174.9043" gradientTransform="matrix(1 0 0 1 -0.6528 900)">
	<stop  offset="0.3548" style="stop-color:#312B30"/>
	<stop  offset="1" style="stop-color:#1B171A"/>
</linearGradient>
<polygon class="st25" points="278.8,692.4 460.5,692.1 460.5,756.5 271.5,758.1 231.2,724.5 231.2,700.1 "/>
<linearGradient id="SVGID_18_" gradientUnits="userSpaceOnUse" x1="518.7761" y1="-205.8101" x2="927.345" y2="-201.405" gradientTransform="matrix(1 0 0 1 -0.6528 900)">
	<stop  offset="0.3548" style="stop-color:#312B30"/>
	<stop  offset="1" style="stop-color:#1B171A"/>
</linearGradient>
<path class="st26" d="M829.8,670.7c-1.1-3-8.3-20.5-28.2-28.4c-19.8-7.9-37.1-0.3-39.9,1l-118.8-1.1c0,0-1.8,33,11.9,45.2L499,688.1
	v64.2h171.1h213.8l26.6-65.7v-13.4C883.6,672.2,856.7,671.5,829.8,670.7z"/>
<linearGradient id="SVGID_19_" gradientUnits="userSpaceOnUse" x1="613.0696" y1="-349.5088" x2="921.5031" y2="-349.5088" gradientTransform="matrix(1 0 0 1 -0.6528 900)">
	<stop  offset="0.3548" style="stop-color:#F7AA47"/>
	<stop  offset="1" style="stop-color:#F26C46"/>
</linearGradient>
<path class="st27" d="M913,565.1l-26.1-4.1l-7.5-87.5L902,473h11c0,0,1.9-7.8-2.1-17.4l-17.6-3.5c-33.2-27.2-119.6-24.9-122.3-24.9
	c-2.4,0-146.1,0.4-158.5,0.4v214.5h44.4l112.6,1.1c0,0,37.7,5.2,57.3,30.6l83.7-1h10.4V569.2L913,565.1z"/>
<path class="st28" d="M887,561.1l26.1,4.1c0,0-3.5-61.9-11-92.1l-22.6,0.6L887,561.1z"/>
<linearGradient id="SVGID_20_" gradientUnits="userSpaceOnUse" x1="657.4661" y1="-350.861" x2="759.7003" y2="-350.861" gradientTransform="matrix(1 0 0 1 -0.6528 900)">
	<stop  offset="0" style="stop-color:#F26C46"/>
	<stop  offset="0.6452" style="stop-color:#F7AA47"/>
</linearGradient>
<path class="st29" d="M682.5,455.2c-10,0-18.1,7.8-18.6,17.8l-7,169.1l102.2,1v-188H682.5z"/>
<linearGradient id="SVGID_21_" gradientUnits="userSpaceOnUse" x1="759.7003" y1="-335.4343" x2="881.3833" y2="-335.4343" gradientTransform="matrix(1 0 0 1 -0.6528 900)">
	<stop  offset="0" style="stop-color:#F26C46"/>
	<stop  offset="0.6452" style="stop-color:#F7AA47"/>
</linearGradient>
<path class="st30" d="M878.3,500.9c-0.2-5-0.6-14.3-2.9-26.1c-1.7-8.8-3.9-15.7-5.2-19.7H759v188.1l10.4,0.1c0,0,37.7,5.2,57.3,30.6
	l54-0.6C880,583.8,878.9,517.9,878.3,500.9z"/>
<path class="st28" d="M769.4,466.7v72.4l86.6,16.3c6.3,1.2,12.1-3.5,12.4-9.9c0.8-20.3,1.8-58.2-1.1-69.5c-0.5-1.7-1.2-3.6-2.6-5.2
	c-5.1-6-15.1-5.1-23.7-4.6c-10.9,0.6-21.8-0.2-32.7,0.3C799.1,466.9,785.8,467.3,769.4,466.7z"/>
<linearGradient id="SVGID_22_" gradientUnits="userSpaceOnUse" x1="852.4645" y1="-382.0201" x2="872.8755" y2="-382.0201" gradientTransform="matrix(1 0 0 1 -0.6528 900)">
	<stop  offset="0.3548" style="stop-color:#312B30"/>
	<stop  offset="1" style="stop-color:#1B171A"/>
</linearGradient>
<path class="st31" d="M868.4,541h-12.8c-2.1,0-3.8-1.7-3.8-3.8v-38.5c0-2.1,1.7-3.8,3.8-3.8h12.8c2.1,0,3.8,1.7,3.8,3.8v38.5
	C872.3,539.3,870.5,541,868.4,541z"/>
<linearGradient id="SVGID_23_" gradientUnits="userSpaceOnUse" x1="613.1715" y1="-469.6929" x2="893.908" y2="-469.6929" gradientTransform="matrix(1 0 0 1 -0.6528 900)">
	<stop  offset="0" style="stop-color:#F26C46"/>
	<stop  offset="0.6452" style="stop-color:#F7AA47"/>
</linearGradient>
<path class="st32" d="M893.3,452.1c0,0-1.1-16.7-39.3-28.4c-38.2-11.7-95.1-14.8-95.1-14.8c23.9,16.9-61.7-0.4-61.7-0.4l-79.4,0.9
	h-5.2v18.2c12.4,0,156-0.4,158.5-0.4C773.6,427.2,860.1,425,893.3,452.1z"/>
<linearGradient id="SVGID_24_" gradientUnits="userSpaceOnUse" x1="618.4076" y1="-521.4935" x2="763.7556" y2="-521.4935" gradientTransform="matrix(1 0 0 1 -0.6528 900)">
	<stop  offset="0.3548" style="stop-color:#F7AA47"/>
	<stop  offset="1" style="stop-color:#F26C46"/>
</linearGradient>
<path class="st33" d="M758.8,408.9c-6.3-8.8-14.8-18.7-26.1-28.2c-28.5-24.1-59.1-32.4-76.5-35.6c-6.2-1.3-10.8-2.3-13.6-3.1
	c-5.2-1.2-8.9-2.1-12-0.3c-1.6,0.9-2.6,2.2-2.7,2.4c-0.9,1.2-1.4,2.5-2,6.4c-0.3,1.8-0.6,4.3-0.9,7.1c-2.4,17.2-4.9,34.4-7.4,51.7
	l79.4-0.9C697.2,408.5,782.8,425.8,758.8,408.9z"/>
<polygon class="st34" points="912.8,692.9 922.2,692.9 922.2,684.7 881.3,684.7 881.5,755 921.6,755 921.6,745.3 913,745.3 
	913,727.4 922.6,727.4 922.6,718.6 912.8,718.6 "/>
<g>
	
		<linearGradient id="SVGID_25_" gradientUnits="userSpaceOnUse" x1="1541.9286" y1="-162.7869" x2="1678.3766" y2="-162.7869" gradientTransform="matrix(-1 0 0 1 2360.8501 900)">
		<stop  offset="0.3548" style="stop-color:#312B30"/>
		<stop  offset="1" style="stop-color:#1B171A"/>
	</linearGradient>
	<circle class="st35" cx="750.7" cy="737.2" r="68.2"/>
	<ellipse class="st34" cx="750.7" cy="737.2" rx="43.5" ry="43.5"/>
	
		<linearGradient id="SVGID_26_" gradientUnits="userSpaceOnUse" x1="1592.2311" y1="-162.7869" x2="1628.0377" y2="-162.7869" gradientTransform="matrix(-1 0 0 1 2360.8501 900)">
		<stop  offset="0.3548" style="stop-color:#312B30"/>
		<stop  offset="1" style="stop-color:#1B171A"/>
	</linearGradient>
	<circle class="st36" cx="750.7" cy="737.2" r="17.9"/>
	<g>
		
			<linearGradient id="SVGID_27_" gradientUnits="userSpaceOnUse" x1="1604.2086" y1="-191.9108" x2="1616.1139" y2="-191.9108" gradientTransform="matrix(-1 0 0 1 2360.8501 900)">
			<stop  offset="0" style="stop-color:#F26C46"/>
			<stop  offset="0.6452" style="stop-color:#F7AA47"/>
		</linearGradient>
		<path class="st37" d="M744.7,708.1c0,3.3,2.6,5.9,5.9,5.9c3.3,0,5.9-2.6,5.9-5.9c0-3.3-2.6-5.9-5.9-5.9
			C747.4,702.1,744.7,704.7,744.7,708.1z"/>
		
			<linearGradient id="SVGID_28_" gradientUnits="userSpaceOnUse" x1="1604.2086" y1="-131.2219" x2="1616.1139" y2="-131.2219" gradientTransform="matrix(-1 0 0 1 2360.8501 900)">
			<stop  offset="0" style="stop-color:#F26C46"/>
			<stop  offset="0.6452" style="stop-color:#F7AA47"/>
		</linearGradient>
		<path class="st38" d="M744.7,768.8c0,3.3,2.6,5.9,5.9,5.9c3.3,0,5.9-2.6,5.9-5.9s-2.6-5.9-5.9-5.9
			C747.4,762.8,744.7,765.5,744.7,768.8z"/>
		
			<linearGradient id="SVGID_29_" gradientUnits="userSpaceOnUse" x1="1573.8561" y1="-161.6668" x2="1585.7611" y2="-161.6668" gradientTransform="matrix(-1 0 0 1 2360.8501 900)">
			<stop  offset="0" style="stop-color:#F26C46"/>
			<stop  offset="0.6452" style="stop-color:#F7AA47"/>
		</linearGradient>
		<path class="st39" d="M781,732.4c-3.3,0-5.9,2.6-5.9,5.9s2.6,5.9,5.9,5.9s5.9-2.6,5.9-5.9C786.9,735.2,784.3,732.4,781,732.4z"/>
		
			<linearGradient id="SVGID_30_" gradientUnits="userSpaceOnUse" x1="1634.5614" y1="-161.6668" x2="1646.4667" y2="-161.6668" gradientTransform="matrix(-1 0 0 1 2360.8501 900)">
			<stop  offset="0" style="stop-color:#F26C46"/>
			<stop  offset="0.6452" style="stop-color:#F7AA47"/>
		</linearGradient>
		<path class="st40" d="M720.4,732.4c-3.3,0-5.9,2.6-5.9,5.9s2.6,5.9,5.9,5.9s5.9-2.6,5.9-5.9C726.3,735.2,723.6,732.4,720.4,732.4z
			"/>
		
			<linearGradient id="SVGID_31_" gradientUnits="userSpaceOnUse" x1="1626.3651" y1="-182.3376" x2="1638.2603" y2="-182.3376" gradientTransform="matrix(-1 0 0 1 2360.8501 900)">
			<stop  offset="0" style="stop-color:#F26C46"/>
			<stop  offset="0.6452" style="stop-color:#F7AA47"/>
		</linearGradient>
		<path class="st41" d="M724.4,722c2.4,2.2,6.2,2.1,8.5-0.3c2.2-2.4,2.1-6.2-0.3-8.5c-2.4-2.2-6.2-2.1-8.5,0.3
			C722,716,722.1,719.8,724.4,722z"/>
		
			<linearGradient id="SVGID_32_" gradientUnits="userSpaceOnUse" x1="1582.0532" y1="-140.8941" x2="1593.9583" y2="-140.8941" gradientTransform="matrix(-1 0 0 1 2360.8501 900)">
			<stop  offset="0" style="stop-color:#F26C46"/>
			<stop  offset="0.6452" style="stop-color:#F7AA47"/>
		</linearGradient>
		<path class="st42" d="M768.8,763.5c2.4,2.2,6.2,2.1,8.5-0.3c2.2-2.4,2.1-6.2-0.3-8.5c-2.4-2.2-6.2-2.1-8.5,0.3
			C766.3,757.5,766.4,761.2,768.8,763.5z"/>
		
			<linearGradient id="SVGID_33_" gradientUnits="userSpaceOnUse" x1="1583.4623" y1="-183.7251" x2="1595.3672" y2="-183.7251" gradientTransform="matrix(-1 0 0 1 2360.8501 900)">
			<stop  offset="0" style="stop-color:#F26C46"/>
			<stop  offset="0.6452" style="stop-color:#F7AA47"/>
		</linearGradient>
		<path class="st43" d="M767.1,712.2c-2.2,2.4-2.1,6.2,0.3,8.5c2.4,2.2,6.2,2.1,8.5-0.3c2.2-2.4,2.1-6.2-0.3-8.5
			C773.1,709.7,769.3,709.8,767.1,712.2z"/>
		
			<linearGradient id="SVGID_34_" gradientUnits="userSpaceOnUse" x1="1624.9553" y1="-139.4304" x2="1636.8604" y2="-139.4304" gradientTransform="matrix(-1 0 0 1 2360.8501 900)">
			<stop  offset="0" style="stop-color:#F26C46"/>
			<stop  offset="0.6452" style="stop-color:#F7AA47"/>
		</linearGradient>
		<path class="st44" d="M725.6,756.5c-2.2,2.4-2.1,6.2,0.3,8.5c2.4,2.2,6.2,2.1,8.5-0.3c2.2-2.4,2.1-6.2-0.3-8.5
			C731.7,754,727.9,754.1,725.6,756.5z"/>
	</g>
</g>
<linearGradient id="SVGID_35_" gradientUnits="userSpaceOnUse" x1="300.6649" y1="-162.7869" x2="437.1129" y2="-162.7869" gradientTransform="matrix(1 0 0 1 -0.6528 900)">
	<stop  offset="0" style="stop-color:#1B171A"/>
	<stop  offset="0.6452" style="stop-color:#312B30"/>
</linearGradient>
<circle class="st45" cx="368.2" cy="737.2" r="68.2"/>
<ellipse class="st34" cx="368.2" cy="737.2" rx="43.5" ry="43.5"/>
<linearGradient id="SVGID_36_" gradientUnits="userSpaceOnUse" x1="351.0134" y1="-162.7869" x2="386.8201" y2="-162.7869" gradientTransform="matrix(1 0 0 1 -0.6528 900)">
	<stop  offset="0.3548" style="stop-color:#312B30"/>
	<stop  offset="1" style="stop-color:#1B171A"/>
</linearGradient>
<circle class="st46" cx="368.2" cy="737.2" r="17.9"/>
<g>
	
		<linearGradient id="SVGID_37_" gradientUnits="userSpaceOnUse" x1="362.9641" y1="-191.9108" x2="374.8693" y2="-191.9108" gradientTransform="matrix(1 0 0 1 -0.6528 900)">
		<stop  offset="0" style="stop-color:#F26C46"/>
		<stop  offset="0.6452" style="stop-color:#F7AA47"/>
	</linearGradient>
	<path class="st47" d="M374.2,708.1c0,3.3-2.6,5.9-5.9,5.9s-5.9-2.6-5.9-5.9c0-3.3,2.6-5.9,5.9-5.9
		C371.6,702.1,374.2,704.7,374.2,708.1z"/>
	
		<linearGradient id="SVGID_38_" gradientUnits="userSpaceOnUse" x1="362.9641" y1="-131.2219" x2="374.8693" y2="-131.2219" gradientTransform="matrix(1 0 0 1 -0.6528 900)">
		<stop  offset="0" style="stop-color:#F26C46"/>
		<stop  offset="0.6452" style="stop-color:#F7AA47"/>
	</linearGradient>
	<path class="st48" d="M374.2,768.8c0,3.3-2.6,5.9-5.9,5.9s-5.9-2.6-5.9-5.9s2.6-5.9,5.9-5.9C371.6,762.8,374.2,765.5,374.2,768.8z"
		/>
	
		<linearGradient id="SVGID_39_" gradientUnits="userSpaceOnUse" x1="332.6116" y1="-161.6668" x2="344.5165" y2="-161.6668" gradientTransform="matrix(1 0 0 1 -0.6528 900)">
		<stop  offset="0" style="stop-color:#F26C46"/>
		<stop  offset="0.6452" style="stop-color:#F7AA47"/>
	</linearGradient>
	<path class="st49" d="M337.9,732.4c3.3,0,5.9,2.6,5.9,5.9s-2.6,5.9-5.9,5.9c-3.3,0-5.9-2.6-5.9-5.9
		C332,735.2,334.6,732.4,337.9,732.4z"/>
	
		<linearGradient id="SVGID_40_" gradientUnits="userSpaceOnUse" x1="393.3273" y1="-161.6668" x2="405.2326" y2="-161.6668" gradientTransform="matrix(1 0 0 1 -0.6528 900)">
		<stop  offset="0" style="stop-color:#F26C46"/>
		<stop  offset="0.6452" style="stop-color:#F7AA47"/>
	</linearGradient>
	<path class="st50" d="M398.6,732.4c3.3,0,5.9,2.6,5.9,5.9s-2.6,5.9-5.9,5.9c-3.3,0-5.9-2.6-5.9-5.9
		C392.7,735.2,395.3,732.4,398.6,732.4z"/>
	
		<linearGradient id="SVGID_41_" gradientUnits="userSpaceOnUse" x1="385.1196" y1="-182.3376" x2="397.0248" y2="-182.3376" gradientTransform="matrix(1 0 0 1 -0.6528 900)">
		<stop  offset="0" style="stop-color:#F26C46"/>
		<stop  offset="0.6452" style="stop-color:#F7AA47"/>
	</linearGradient>
	<path class="st51" d="M394.5,722c-2.4,2.2-6.2,2.1-8.5-0.3c-2.2-2.4-2.1-6.2,0.3-8.5c2.4-2.2,6.2-2.1,8.5,0.3
		C397.1,716,396.8,719.8,394.5,722z"/>
	
		<linearGradient id="SVGID_42_" gradientUnits="userSpaceOnUse" x1="340.8068" y1="-140.8941" x2="352.7019" y2="-140.8941" gradientTransform="matrix(1 0 0 1 -0.6528 900)">
		<stop  offset="0" style="stop-color:#F26C46"/>
		<stop  offset="0.6452" style="stop-color:#F7AA47"/>
	</linearGradient>
	<path class="st52" d="M350.2,763.5c-2.4,2.2-6.2,2.1-8.5-0.3c-2.2-2.4-2.1-6.2,0.3-8.5c2.4-2.2,6.2-2.1,8.5,0.3
		C352.7,757.5,352.6,761.2,350.2,763.5z"/>
	
		<linearGradient id="SVGID_43_" gradientUnits="userSpaceOnUse" x1="342.2176" y1="-183.7251" x2="354.1226" y2="-183.7251" gradientTransform="matrix(1 0 0 1 -0.6528 900)">
		<stop  offset="0" style="stop-color:#F26C46"/>
		<stop  offset="0.6452" style="stop-color:#F7AA47"/>
	</linearGradient>
	<path class="st53" d="M351.8,712.2c2.2,2.4,2.1,6.2-0.3,8.5c-2.4,2.2-6.2,2.1-8.5-0.3c-2.2-2.4-2.1-6.2,0.3-8.5
		C345.8,709.7,349.6,709.8,351.8,712.2z"/>
	
		<linearGradient id="SVGID_44_" gradientUnits="userSpaceOnUse" x1="383.7107" y1="-139.4304" x2="395.6158" y2="-139.4304" gradientTransform="matrix(1 0 0 1 -0.6528 900)">
		<stop  offset="0" style="stop-color:#F26C46"/>
		<stop  offset="0.6452" style="stop-color:#F7AA47"/>
	</linearGradient>
	<path class="st54" d="M393.4,756.5c2.2,2.4,2.1,6.2-0.3,8.5c-2.4,2.2-6.2,2.1-8.5-0.3c-2.2-2.4-2.1-6.2,0.3-8.5
		C387.4,754,391.1,754.1,393.4,756.5z"/>
</g>
<rect x="820.1" y="702.9" class="st34" width="63.4" height="15.2"/>
<rect x="452.8" y="689" class="st34" width="131.2" height="72.9"/>
<rect x="593.5" y="705.5" class="st34" width="67.7" height="13.8"/>
<linearGradient id="SVGID_45_" gradientUnits="userSpaceOnUse" x1="909.793" y1="-292.1579" x2="921.5182" y2="-292.1579" gradientTransform="matrix(1 0 0 1 -0.6528 900)">
	<stop  offset="0" style="stop-color:#F8DF45"/>
	<stop  offset="0.1876" style="stop-color:#F8DA46"/>
	<stop  offset="0.4763" style="stop-color:#F7CC47"/>
	<stop  offset="0.8282" style="stop-color:#F7B447"/>
	<stop  offset="0.9462" style="stop-color:#F7AA47"/>
</linearGradient>
<path class="st55" d="M920.9,593.9h-3.3c-4.7,0-8.5,3.8-8.5,8.5v10.9c0,4.7,3.8,8.5,8.5,8.5h3.3V593.9z"/>
<rect x="907.8" y="639.9" class="st34" width="13" height="12.1"/>
<rect x="274.7" y="305.2" class="st56" width="305" height="352.6"/>
<linearGradient id="SVGID_46_" gradientUnits="userSpaceOnUse" x1="450.3503" y1="-194.4041" x2="592.9079" y2="-194.4041" gradientTransform="matrix(1 0 0 1 -0.6528 900)">
	<stop  offset="0.3548" style="stop-color:#312B30"/>
	<stop  offset="1" style="stop-color:#1B171A"/>
</linearGradient>
<rect x="449.7" y="704" class="st57" width="142.6" height="3.2"/>
<linearGradient id="SVGID_47_" gradientUnits="userSpaceOnUse" x1="450.7577" y1="-174.8533" x2="593.3152" y2="-174.8533" gradientTransform="matrix(1 0 0 1 -0.6528 900)">
	<stop  offset="0.3548" style="stop-color:#312B30"/>
	<stop  offset="1" style="stop-color:#1B171A"/>
</linearGradient>
<rect x="450.1" y="723.6" class="st58" width="142.6" height="3.2"/>
<linearGradient id="SVGID_48_" gradientUnits="userSpaceOnUse" x1="451.1649" y1="-155.3026" x2="593.7225" y2="-155.3026" gradientTransform="matrix(1 0 0 1 -0.6528 900)">
	<stop  offset="0.3548" style="stop-color:#312B30"/>
	<stop  offset="1" style="stop-color:#1B171A"/>
</linearGradient>
<rect x="450.5" y="743.1" class="st59" width="142.6" height="3.2"/>
<rect x="593.5" y="746" class="st34" width="67.7" height="13.8"/>
<rect x="588.7" y="690.5" class="st34" width="9.2" height="69.3"/>
<rect x="657.7" y="690.8" class="st34" width="8.2" height="69"/>
<g>
	
		<linearGradient id="SVGID_49_" gradientUnits="userSpaceOnUse" x1="666.5555" y1="-190.0765" x2="832.183" y2="-190.0765" gradientTransform="matrix(1 0 0 1 -0.6528 900)">
		<stop  offset="0" style="stop-color:#1B171A"/>
		<stop  offset="0.6452" style="stop-color:#312B30"/>
	</linearGradient>
	<path class="st60" d="M673.7,766.5c-3.3,0-6.1-2.3-6.6-5.7c-0.1-0.9-3.2-22.3,0.9-46c5.6-32.8,21.9-54,47.2-61.2l0.9-0.3h63.2
		l1.3,0.6c13.5,6.5,25.3,16.1,33.8,27.7c22.7,31,16.9,66.8,14.6,77.1c-0.8,3.6-4.4,5.8-7.9,5c-3.6-0.8-5.8-4.4-5-7.9
		c2-8.9,7-39.8-12.3-66.3c-6.9-9.5-16.4-17.4-27.4-22.9h-58.2c-48.4,15-37.9,91.5-37.8,92.3c0.5,3.7-2,7-5.6,7.5
		C674.4,766.4,674.1,766.5,673.7,766.5z"/>
</g>
<g>
	
		<linearGradient id="SVGID_50_" gradientUnits="userSpaceOnUse" x1="284.3994" y1="-190.0765" x2="450.0269" y2="-190.0765" gradientTransform="matrix(1 0 0 1 -0.6528 900)">
		<stop  offset="0.3548" style="stop-color:#312B30"/>
		<stop  offset="1" style="stop-color:#1B171A"/>
	</linearGradient>
	<path class="st61" d="M291.6,766.5c-3.3,0-6.1-2.3-6.6-5.7c-0.1-0.9-3.2-22.3,0.9-46c5.6-32.8,21.9-54,47.2-61.2l0.9-0.3h63.2
		l1.3,0.6c13.5,6.5,25.3,16.1,33.8,27.7c22.7,31,16.9,66.8,14.6,77.1c-0.8,3.6-4.4,5.8-7.9,5c-3.6-0.8-5.8-4.4-5-7.9
		c2-8.9,7-39.8-12.3-66.3c-6.9-9.5-16.4-17.4-27.4-22.9h-58.2c-48.4,15-37.9,91.5-37.8,92.3c0.5,3.7-2,7-5.6,7.5
		C292.3,766.4,292,766.5,291.6,766.5z"/>
</g>
<g>
	<path class="st62" d="M422.4,595.3h3.6v-52.5c-0.1-0.1-0.4-0.9-1.2-1.1c-0.8-0.2-1.8,0.2-2.3,1.1
		C422.4,560.2,422.4,577.8,422.4,595.3z"/>
	<path class="st63" d="M425.5,595.3h-1.2v-53.8c0.1,0,0.2,0,0.3,0.1c0.4,0.1,0.6,0.3,0.8,0.5v53.2H425.5z"/>
	<path class="st62" d="M431.9,543.7c4.2,1.6-12.2,0.3-12.7,0.1C418.6,543.6,418.9,538.5,431.9,543.7z"/>
	<path class="st62" d="M412.7,364.1l7.8,9.2l0.9-1.4l4.3,10.4l4.4-4.8c5.1,4.3,5.1,11.8,5.1,11.8c1.6-0.2,6-2.3,6-2.3
		c2.9,6,0.5,13.2,0.5,13.2l5.6-0.3c2.1,10.4-3.6,14.9-3.6,14.9l7.2-0.5c-0.2,6.2-4.3,12.3-4.3,12.3l5.5-0.5
		c-0.3,4.8-4.4,12.2-4.4,12.2l5.8-0.2c-0.3,11.8-5.6,14.7-5.6,14.7l6,1.2c-0.3,5.1-7.2,11.5-7.2,11.5l4.8,0.5l-6.3,12.3l3.2-0.5
		c-1.2,3.6-9,14.5-9,14.5l3.7,0.3l-7,11.8l1.9,0.9c-3.8,12-7.6,24-11.4,36.1c-0.6,0.2-1.2,0.4-1.8,0.5c-0.2-0.4-0.4-0.8-0.6-1.2
		c-0.2-3.9-0.5-8.5-0.7-12.4C420.3,473.6,416.7,418.9,412.7,364.1z"/>
	<path class="st64" d="M414.4,519.3c0,0-0.2-0.4-4-11.4v-0.1c0.1-0.4,2.1,0.1,2.1,0.1c-3.9-5-7.2-10.9-7.2-10.9l2.6-0.3
		c-5-4.3-6.5-14.9-6.5-14.9h2.3c-7-5.5-6.9-12.3-6.9-12.3h2.9c-4.8-3.2-7.2-11.3-7.2-11.3l4.3-1.2c-6.5-3.7-7-10.8-7-10.8l5.1-0.2
		c-6-3.9-7.9-12.5-7.9-12.5l6.2-0.2c-3.9-4.6-5.1-10.4-5.1-10.4h6.3c-3.7-4.4-4.4-14-4.4-14l7.4-0.5C393,403.3,395,394,395,394
		l7,1.6c-1.6-7,3-13.5,3-13.5l4.8,2.9c-0.9-5,3.4-8.5,3.4-8.5l1.7,1.9l-4.8-17.3l2.7,3.3c1.5,3.1,3.6,9,5.2,20.5
		c2.6,18.8,5.4,119.5,6.3,156.1c0.2,0.4,0.4,0.9,0.6,1.3c-1-0.2-2.1-0.3-3.2-0.5C418.8,528.3,416.5,522.1,414.4,519.3z"/>
	<path class="st64" d="M301.8,421.9c0,0,99.8,89.5,119.7,119.3c1.1,0.3,2.2,0.6,3.3,0.8c-1.6,0.2-3.4,0.4-5,0.5
		c-2.7-3.3-6.5-7.1-11.3-10.8c-7.5-5.8-14.9-9.1-20.3-10.9l1.2-1.7l-14.7-5.1l2.3-1.6l-15.9-6.3l1.9-2.3c-4.6,1.4-12-3.9-12-3.9
		l2.4-3.6c-5.8,1.9-11.5-3.7-11.5-3.7c1.2-0.5,2.9-3.2,2.9-3.2c-3.6,1.4-11.1-4.8-11.1-4.8c1-0.2,3.2-2.1,3.2-2.1
		c-5.1,0.2-9.7-4.6-9.7-4.6l4.4-3.4c-6.3-1-10.1-6.5-10.1-6.5l4.3-2.6c-5.8-1.7-9.2-7.2-9.2-7.2s10.1-2.1,5.1-3.4
		c-5-1.2-9.4-9.7-9.4-9.7l4.8-0.5c-4.3-2.4-5.1-6.3-6.3-10.6c-1.2-4.3-8.9-9.7-9.7-10.8c-0.3-0.3-0.3-0.6-0.3-0.7
		C301.1,422.1,301.8,421.9,301.8,421.9z"/>
	<path class="st62" d="M301.8,421.9c5.8,0.2,22.9,11.3,22.9,11.3l0.9-2.1c4.1,1.7,9.2,7,9.2,7l3-2.9c5.6,0.9,9.4,8.9,9.4,8.9
		l3.4-4.3c6,1.4,7.9,10.1,7.9,10.1l3.4-3.9c4.4,1.4,7.2,11.1,7.2,11.5c0,3.1,3.6-4.8,3.6-4.8c3.2,0.9,4.8,9,4.8,9l4.1-2.9
		c3.4,7.6,3.4,11.5,3.4,11.5l3.9-3.2c0.9,3,3,12.9,3,12.9l3.2-3.4c1.9,4.8,3.9,14.7,3.9,14.7l3.2-2.4l2.9,14.7l2.3-1.7l3.2,14.3h1.7
		c4.1,8.2,8.2,16.5,12.3,24.7c0.2,0.4,0.5,0.8,0.7,1.2c-1.1-0.3-2.3-0.6-3.5-0.9c-20.3-23-42.4-47-67.4-70.9
		C335.2,452.3,300.6,420.6,301.8,421.9L301.8,421.9z"/>
	<path class="st62" d="M323.2,510.4l0.3-3.6c5.8,1,11.5,3.2,11.5,3.2l0.3-4.4c3.6,0.7,9.7,3.2,9.7,3.2l0.3-3.4
		c5.1,1.2,8.2,5.5,8.2,5.5l1.7-3.9c2.4,0.9,7.9,6,7.9,6l1-3.6l9.2,6.7l0.3-3.4l9.4,7.9l1.6-1.7l9,7.9l0.2-2.4
		c4.3,3.4,9.5,6.9,15.7,10.4c5.4,3.1,10.6,5.3,15.2,7.1c-1.8-0.3-3.8-0.5-5.6-0.8c-25.7-3.7-54.9-9.8-86.1-20.3
		c-13.6-4.5-26.4-9.5-38.2-14.5c4,1.2,8.8,2.4,14.3,3.2C314.5,510.4,319.3,510.5,323.2,510.4z"/>
	<path class="st64" d="M420.4,543.6c-6.5-0.5-13-0.9-19.4-1.4l-7.6,4.3l-0.3-2.9l-6.8,2.3l-0.8-0.1l1.1-3l-14.7,3.7l0.3-3
		c-1.2,1-13.7,4.1-13.7,4.1l0.5-3.4c-5.3,2.4-12.7,2.3-12.7,2.3l1.4-4.1c-5.8,2.4-11.8,1.9-11.8,1.9l2.4-5
		c-6.9,2.4-13.5-0.5-13.5-0.5l5-4.6c-8.1,1.6-13.7-2.3-13.7-2.3c1.2-0.7,4.3-4.8,4.3-4.8c-8.5,0.3-13.2-6.3-13.2-6.3l2.4-1.2
		c-4.4-1.6-14.3-13.2-14.3-13.2s60.4,27.1,124.1,34.3C419.5,541.8,419.9,542.7,420.4,543.6z"/>
	<path class="st62" d="M386.1,545.9l7.1,0.5l5.4-3c2.2,0.2,4.7,0.4,7.4,0.3c5.3-0.1,9.8-1,13.3-1.9c1.8,0,3.8,0.1,5.6,0.1
		c-0.1,0.1-0.1,0.1-0.2,0.1c-1.5,1.2-3.8,0.9-5.3,0.5c-26.8,11.4-53.6,22.8-80.3,34.2c0.9-1.3,13.4-13.1,15.4-13.6s2-1.8,2-1.8
		l-1.4-0.9c0,0,4-4.3,9.6-4l-1-3.3c0,0,3.9-3.1,9.6-1.6l-1.4-3.4c0,0,5.4-1.2,10.6,0.3l-0.6-3l3.4,0.2l-0.1,0.4L386.1,545.9z"/>
	<path class="st64" d="M418.9,544.5l-18.3,18.6l-0.8-1.1l-8.9,9.6l-0.7-3.4c0,0-6.1,6.1-11.6,8.3l-0.3-4.4c0,0-3.9,3.8-12.7,5.1
		l-0.3-4.4l-25.7,5.6c0,0-1.2-0.3-0.3-1.6l80.3-34.2c1.9-0.2,3.9-0.4,5.8-0.5C423.2,542.9,421.1,543.6,418.9,544.5z"/>
	<path class="st62" d="M478.8,575.2l0.3,4.1c-10.9,0.5-13.2-6.9-13.2-6.9c0,1.6-1.4,5-1.4,5c-5.3-1.6-9.2-9-9.2-9l-1.8,2.3
		c-3.3-3.7-6.7-7.5-10.4-11.3c-6.2-6.4-12.4-12.1-18.3-17.2c27,12.7,54.1,25.4,81.1,38.1C496.8,578.6,487.9,576.8,478.8,575.2z"/>
	<path class="st64" d="M427.2,541.3c7.5-4.8,15.2-9.7,22.7-14.5l0.7,2.3l10.1-7.4l1,1.2l5.6-6l0.9,1.9c0,0,7.2-5.3,10.4-7.2l0.2,3
		c0,0,5.1-5.5,9-6.7l1.4,3.7c0,0,5.5-4.6,9.9-6.3l1.4,4.8c0,0,5.1-4.1,9.9-6.2l0.7,4.8c0,0,8.7-4.8,13.7-4.4l0.7,4.1
		c0,0,6.5-2.6,14.3-1.9c7.7,0.7,11.8-5.3,15.4-4.1c0,0-82.9,33.1-127.6,39.6c-0.9,0.1-1.9,0.1-2.9,0.2
		C425.6,541.8,426.4,541.6,427.2,541.3z"/>
	<path class="st62" d="M460.6,547.3c-11-1.3-22.1-2.5-33.1-3.9c-0.9-0.5-1.9-0.9-2.9-1.4c1,0,2-0.1,3-0.1
		c25-5.5,52.2-12.4,80.5-22.3c26.3-9.1,47-17.3,47-17.3c3.6,1.2-1.6,3.4-5.8,6.5c-4.3,3.2-5.1,6.7-8.1,7.4l1.9,1.2
		c0,0-3.7,5.3-11.5,6c0,0,2.3,3.9,3.2,4.3c0.9,0.3-7.6,5-13.4,3.9c0,0,1.6,3.4,3,4.6c0,0-6.5,3.4-14.2,2.3l3.4,5.1c0,0-7.4,3-13.7-1
		l2.3,6.3c0,0-10.1,0-12.9-3.9l0.9,4.1c0,0-8.9,0.5-12.2-2.6l-0.2,3.4c0,0-11.5-0.7-15-4.8l-0.2,3.2c0,0-0.4-0.2-1.2-0.5l0.1-0.4
		H460.6z"/>
	<path class="st64" d="M427.5,542.8c8,0.8,16,1.6,24,2.5l0.3,1.9h8.8h1.1l-0.1,0.4l-0.6,1.9c3.4-1.6,10.1,1,10.1,1l-1.4,3
		c4.1-0.3,8.5,3,8.5,3l-1.7,2.1c3.4-0.7,9.9,2.9,9.9,2.9c-1,1-1,3-1,3c6.3,0.3,20.7,15.7,20.7,15.7l-77.4-35.7
		c-1.2-0.8-2.5-1.6-3.8-2.4C425.7,542.3,426.6,542.6,427.5,542.8z"/>
	<path class="st62" d="M456,522.5c-9.7,6.5-19.2,13.1-28.9,19.7c-0.8-0.1-1.6-0.1-2.4-0.2c0.4-0.3,0.7-0.5,1.1-0.8
		c33.8-71.1,54.5-94.4,67.5-100.4c3-1.3,17.3-7.1,21.2-19.8c1.4-4.7,1-9.1,0.4-12.1c0.9,0.6,2.1,1.7,3.3,3.5c2.9,4.4,2,9.3,1.8,11.3
		c-0.2,2.5-2.6,9-2.6,9l4.4-0.2c0,0,1.9,5.9-5,11.4l6.2,0.7c0,0-1.7,8-7.9,10.3l6,1.1c0,0-0.7,7.1-9.4,9.1l5.3,3
		c0,0-4.8,6.5-12.2,7.6l5,2.4c0,0-3.4,7.4-10.9,5.6l5,3.5c0,0-2.7,6-10.7,5l4.1,3.1c0,0-4.3,5.2-12.2,4.2l3.2,2.6
		c0,0-5.6,6.3-12.8,5.6l2.3,2.6c0,0-7.5,5.6-12.8,4.7l2.4,1.9C463.5,518.8,459.8,520.6,456,522.5z"/>
	<path class="st64" d="M505,442.4c-12.9,18.8-21.7,31.2-39.9,51.3c-9.9,10.9-23.6,26.8-39,47.7c-0.4,0.2-0.8,0.5-1.2,0.7
		c0.3-0.4,0.5-0.8,0.8-1.1c3.6-7.2,7-14.5,10.6-21.7l1.6-10.8l2.3,1.7c0,0-0.7-9.9,1.4-13.2l2.4,1.2c0,0,0.5-9.6,1.2-12.5l3,2.3
		c0,0,0.2-7.6,1.7-12.2l2.6,2.1c0,0,0.5-9,2.3-12.2l3.7,3.7c0,0,0.3-6.7,3-12l3.4,3.4c0,0,0.3-5.5,3.8-11.6l4.3,3.5
		c0,0,0.1-7,4.8-11.6l4,4.3c0,0-0.3-6.7,5.3-11.7l3.3,3.5c0,0,1.1-7.7,7.9-10.6l3.2,2.6l7.7-7.8l1.2,1c0,0,4.1-4.5,4.8-6.9
		c0.7-2.4-0.3-4.3,0-5.1C515.1,410.1,522.4,417.1,505,442.4z"/>
</g>
<g>
	<path class="st65" d="M418.1,121.6c-32.4,0-58.8,25.6-60,57.6c0-0.9-0.1-1.8-0.1-2.7c0-33.2,26.9-60.1,60.1-60.1
		s60.1,26.9,60.1,60.1c0,0.9,0,1.8-0.1,2.7C476.9,147.1,450.5,121.6,418.1,121.6z"/>
	<path class="st66" d="M360.6,194.1c5.3,16.3,18.7,48.7,57.4,90.7c38.7-42.1,52.2-74.5,57.4-90.7c1-3.2,2.2-8.2,2.5-14.9
		c0,0.8,0.1,1.6,0.1,2.4c0,7.9-1.4,14-2.6,17.6c-5.3,16.3-18.7,48.7-57.4,90.7c-38.7-42.1-52.2-74.5-57.4-90.7
		c-1.1-3.7-2.6-9.7-2.6-17.6c0-0.8,0-1.6,0.1-2.4C358.4,185.8,359.6,190.8,360.6,194.1z"/>
	<path class="st20" d="M418.1,284.8c-38.7-42.1-52.2-74.5-57.4-90.7c-1-3.2-2.2-8.2-2.5-14.9c1.2-32.1,27.7-57.6,60-57.6
		c32.4,0,58.8,25.6,60,57.6c-0.3,6.6-1.5,11.6-2.5,14.9C470.4,210.3,456.8,242.7,418.1,284.8z"/>
	<ellipse class="st65" cx="418.1" cy="176.5" rx="52.4" ry="52.4"/>
	<g>
		<path class="st67" d="M416.1,126c-14,0-26.6,5.4-35.9,14.3c9.6-10.2,23.1-16.5,38.2-16.5c28.9,0,52.4,23.4,52.4,52.4
			c0,15.1-6.3,28.6-16.5,38.2c8.9-9.4,14.3-22,14.3-35.9C468.4,149.6,445,126,416.1,126z"/>
	</g>
	<path class="st68" d="M377,170.4c0.1,22.9,18.6,41.4,41.5,41.4c20.9,0,38.2-15.4,41.1-35.4v0.1c0,22.9-18.6,41.5-41.5,41.5
		c-22.9,0-41.5-18.6-41.5-41.5C376.6,174.4,376.7,172.4,377,170.4z"/>
	<path class="st19" d="M418.5,211.8c-22.9,0-41.4-18.5-41.5-41.4c3-20.1,20.3-35.4,41.1-35.4c22.9,0,41.4,18.5,41.5,41.4
		C456.7,196.4,439.4,211.8,418.5,211.8z"/>
	<g>
		<path class="st62" d="M418,204h1v-14.6c0,0-0.1-0.2-0.3-0.3c-0.2-0.1-0.5,0.1-0.6,0.3C418,194.3,418,199.2,418,204z"/>
		<path class="st63" d="M418.8,204h-0.3v-15h0.1c0.1,0,0.2,0.1,0.2,0.1L418.8,204L418.8,204z"/>
		<path class="st62" d="M420.6,189.7c1.1,0.5-3.4,0.1-3.6,0C417,189.7,417,188.3,420.6,189.7z"/>
		<path class="st62" d="M415.4,139.9l2.1,2.5l0.2-0.4l1.2,2.9l1.2-1.3c1.4,1.2,1.4,3.3,1.4,3.3c0.4,0,1.6-0.6,1.6-0.6
			c0.8,1.6,0.1,3.7,0.1,3.7l1.5-0.1c0.6,2.9-1,4.1-1,4.1l2-0.1c0,1.7-1.2,3.5-1.2,3.5l1.5-0.1c-0.1,1.3-1.2,3.4-1.2,3.4h1.6
			c-0.1,3.3-1.5,4.1-1.5,4.1l1.6,0.3c-0.1,1.4-2,3.2-2,3.2l1.3,0.1l-1.7,3.5l0.9-0.1c-0.3,1-2.5,4-2.5,4l1,0.1l-1.9,3.3l0.5,0.2
			c-1,3.4-2.1,6.7-3.2,10c-0.2,0.1-0.3,0.1-0.5,0.2c-0.1-0.1-0.1-0.2-0.2-0.3c-0.1-1.1-0.1-2.3-0.2-3.5
			C417.4,170.2,416.4,155.1,415.4,139.9z"/>
		<path class="st64" d="M415.8,183c0,0-0.1-0.1-1.1-3.2l0,0c0-0.1,0.6,0,0.6,0c-1.1-1.3-2-3.1-2-3.1l0.7-0.1
			c-1.3-1.2-1.8-4.1-1.8-4.1h0.6c-1.9-1.5-1.9-3.5-1.9-3.5h0.8c-1.3-0.9-2-3.2-2-3.2l1.2-0.3c-1.8-1-1.9-3-1.9-3h1.4
			c-1.6-1.1-2.2-3.5-2.2-3.5h1.7c-1.1-1.3-1.4-2.9-1.4-2.9h1.7c-1-1.2-1.2-3.9-1.2-3.9l2-0.1c-1.2-1.4-0.6-4-0.6-4l1.9,0.4
			c-0.4-1.9,0.8-3.8,0.8-3.8l1.3,0.8c-0.2-1.3,0.9-2.3,0.9-2.3l0.5,0.5l-1.3-4.8l0.8,0.9c0.4,0.8,1,2.4,1.4,5.7
			c0.7,5.2,1.5,33.2,1.7,43.3c0.1,0.1,0.1,0.2,0.2,0.4c-0.3,0-0.6-0.1-0.9-0.1C417,185.4,416.4,183.7,415.8,183z"/>
		<path class="st64" d="M384.5,155.9c0,0,27.7,24.8,33.2,33.1c0.3,0.1,0.6,0.2,0.9,0.2c-0.5,0.1-0.9,0.1-1.4,0.2
			c-0.8-0.9-1.8-1.9-3.2-3c-2.1-1.6-4.2-2.5-5.6-3.1l0.3-0.5l-4.1-1.4l0.6-0.4l-4.4-1.7l0.5-0.6c-1.3,0.4-3.4-1.1-3.4-1.1l0.7-1
			c-1.6,0.5-3.2-1-3.2-1c0.3-0.1,0.8-0.9,0.8-0.9c-1,0.4-3.1-1.3-3.1-1.3c0.3,0,0.9-0.6,0.9-0.6c-1.4,0-2.6-1.3-2.6-1.3l1.2-0.9
			c-1.7-0.3-2.7-1.8-2.7-1.8l1.2-0.7c-1.6-0.5-2.5-2-2.5-2s2.7-0.6,1.4-0.9c-1.3-0.3-2.5-2.6-2.5-2.6l1.3-0.1
			c-1.2-0.7-1.4-1.7-1.7-3c-0.3-1.2-2.4-2.6-2.6-3c-0.1-0.1-0.1-0.2-0.1-0.2C384.3,156,384.5,155.9,384.5,155.9z"/>
		<path class="st62" d="M384.5,155.9c1.6,0,6.4,3.2,6.4,3.2l0.2-0.6c1.1,0.5,2.5,1.9,2.5,1.9l0.8-0.8c1.5,0.2,2.5,2.4,2.5,2.4
			l0.9-1.2c1.6,0.4,2.2,2.7,2.2,2.7l0.9-1.1c1.2,0.4,2,3.1,2,3.2c0,0.8,1-1.3,1-1.3c0.9,0.2,1.3,2.5,1.3,2.5l1.1-0.8
			c0.9,2.1,0.9,3.2,0.9,3.2l1.1-0.9c0.2,0.8,0.8,3.6,0.8,3.6l0.9-0.9c0.5,1.3,1.1,4.1,1.1,4.1l0.9-0.7l0.8,4.1l0.6-0.5l0.9,4h0.5
			c1.1,2.2,2.2,4.6,3.5,6.8c0.1,0.1,0.1,0.2,0.2,0.3c-0.3-0.1-0.6-0.2-0.9-0.2c-5.6-6.4-11.8-13-18.7-19.7
			C393.8,164.3,384.2,155.6,384.5,155.9L384.5,155.9z"/>
		<path class="st62" d="M390.4,180.4l0.1-1c1.6,0.3,3.2,0.9,3.2,0.9l0.1-1.2c1,0.2,2.6,0.9,2.6,0.9l0.1-0.9c1.4,0.3,2.3,1.5,2.3,1.5
			l0.5-1.1c0.7,0.2,2.2,1.6,2.2,1.6l0.3-1l2.5,1.8l0.1-0.9l2.5,2.2l0.4-0.5l2.5,2.2v-0.7c1.2,0.9,2.6,1.9,4.4,2.9
			c1.5,0.8,3,1.5,4.2,1.9c-0.5-0.1-1-0.1-1.5-0.2c-7.1-1-15.2-2.7-23.9-5.6c-3.8-1.2-7.3-2.6-10.6-4c1.1,0.3,2.4,0.7,4,0.9
			C388.1,180.4,389.4,180.5,390.4,180.4z"/>
		<path class="st64" d="M417.4,189.7c-1.8-0.1-3.6-0.3-5.4-0.4l-2.1,1.2l-0.1-0.8l-1.9,0.6h-0.2l0.3-0.8l-4.1,1l0.1-0.8
			c-0.3,0.3-3.9,1.1-3.9,1.1l0.1-0.9c-1.4,0.7-3.6,0.6-3.6,0.6l0.4-1.1c-1.6,0.7-3.3,0.5-3.3,0.5l0.7-1.3c-1.9,0.7-3.8-0.1-3.8-0.1
			l1.3-1.3c-2.2,0.4-3.9-0.6-3.9-0.6c0.3-0.2,1.2-1.3,1.2-1.3c-2.3,0.1-3.7-1.7-3.7-1.7l0.7-0.3c-1.2-0.4-4-3.7-4-3.7
			s16.8,7.5,34.4,9.6C417.2,189.2,417.3,189.4,417.4,189.7z"/>
		<path class="st62" d="M407.9,190.3l2,0.1l1.5-0.8c0.6,0.1,1.3,0.1,2,0.1c1.4,0,2.7-0.3,3.7-0.5c0.5,0,1,0,1.5,0l0,0
			c-0.4,0.3-1,0.3-1.4,0.1c-7.4,3.2-14.9,6.3-22.3,9.5c0.2-0.4,3.8-3.7,4.3-3.8s0.6-0.5,0.6-0.5l-0.4-0.2c0,0,1.1-1.2,2.6-1.1
			l-0.3-0.9c0,0,1.1-0.8,2.6-0.4l-0.4-0.9c0,0,1.5-0.3,3,0.1l-0.2-0.8l0.9,0.1v0.1L407.9,190.3z"/>
		<path class="st64" d="M417,189.9l-5.1,5.2l-0.2-0.3l-2.4,2.6l-0.2-0.9c0,0-1.7,1.7-3.2,2.3l-0.1-1.2c0,0-1.1,1-3.6,1.4l-0.1-1.2
			l-7.1,1.5c0,0-0.3-0.1-0.1-0.4l22.3-9.5c0.5,0,1.1-0.1,1.6-0.1C418.2,189.5,417.6,189.7,417,189.9z"/>
		<path class="st62" d="M433.7,198.4l0.1,1.1c-3.1,0.1-3.7-1.9-3.7-1.9c0,0.4-0.4,1.3-0.4,1.3c-1.4-0.4-2.5-2.4-2.5-2.4l-0.5,0.6
			c-0.9-1-1.8-2-2.9-3.2c-1.7-1.7-3.5-3.4-5.1-4.8c7.5,3.6,15,7,22.5,10.6C438.7,199.4,436.2,199,433.7,198.4z"/>
		<path class="st64" d="M419.4,189.1c2.1-1.3,4.2-2.6,6.3-4l0.2,0.6l2.7-2l0.3,0.3l1.5-1.6l0.2,0.5c0,0,2-1.4,2.9-2v0.8
			c0,0,1.4-1.5,2.5-1.8l0.4,1c0,0,1.5-1.3,2.7-1.7l0.4,1.3c0,0,1.4-1.1,2.7-1.7l0.2,1.3c0,0,2.4-1.3,3.9-1.2l0.2,1.1
			c0,0,1.8-0.7,4-0.5c2.1,0.2,3.3-1.4,4.3-1.1c0,0-23,9.2-35.4,11c-0.3,0-0.5,0-0.8,0C418.8,189.2,419.1,189.1,419.4,189.1z"/>
		<path class="st62" d="M428.6,190.7c-3.1-0.3-6.1-0.7-9.2-1c-0.3-0.1-0.5-0.3-0.8-0.4c0.3,0,0.5,0,0.8,0c6.9-1.5,14.5-3.5,22.4-6.2
			c7.3-2.5,13-4.8,13-4.8c1,0.3-0.4,0.9-1.6,1.8c-1.2,0.9-1.4,1.8-2.2,2l0.5,0.3c0,0-1,1.4-3.2,1.6c0,0,0.6,1.1,0.9,1.2
			c0.2,0.1-2.1,1.3-3.8,1.1c0,0,0.4,0.9,0.8,1.3c0,0-1.8,0.9-3.9,0.6l0.9,1.4c0,0-2,0.8-3.9-0.3l0.6,1.7c0,0-2.7,0-3.6-1.1l0.2,1.1
			c0,0-2.4,0.1-3.4-0.7v0.9c0,0-3.2-0.2-4.2-1.3v0.9c0,0-0.1-0.1-0.3-0.1v-0.1L428.6,190.7L428.6,190.7z"/>
		<path class="st64" d="M419.5,189.5c2.2,0.2,4.5,0.5,6.6,0.7l0.1,0.5h2.4h0.3v0.1l-0.2,0.5c0.9-0.4,2.7,0.3,2.7,0.3l-0.4,0.8
			c1.1-0.1,2.3,0.8,2.3,0.8l-0.5,0.6c0.9-0.2,2.7,0.8,2.7,0.8c-0.3,0.3-0.3,0.8-0.3,0.8c1.7,0.1,5.7,4.4,5.7,4.4l-21.5-9.9
			c-0.3-0.2-0.7-0.4-1-0.7C418.9,189.3,419.1,189.4,419.5,189.5z"/>
		<path class="st62" d="M427.3,183.8c-2.6,1.8-5.3,3.7-8,5.5c-0.2,0-0.4,0-0.7,0c0.1-0.1,0.2-0.1,0.3-0.2
			c9.4-19.8,15.1-26.2,18.7-27.9c0.8-0.4,4.8-2,5.9-5.5c0.4-1.3,0.3-2.5,0.1-3.4c0.2,0.2,0.6,0.5,0.9,0.9c0.8,1.2,0.5,2.5,0.5,3.2
			c0,0.7-0.7,2.4-0.7,2.4h1.2c0,0,0.5,1.6-1.4,3.2l1.7,0.2c0,0-0.5,2.2-2.2,2.9l1.6,0.3c0,0-0.2,1.9-2.5,2.5l1.4,0.8
			c0,0-1.3,1.8-3.4,2.1l1.4,0.7c0,0-0.9,2-3.1,1.5l1.3,0.9c0,0-0.7,1.6-3,1.4l1.1,0.8c0,0-1.2,1.4-3.4,1.1l0.9,0.7
			c0,0-1.5,1.7-3.6,1.5l0.6,0.7c0,0-2,1.5-3.6,1.3l0.7,0.5C429.4,182.8,428.4,183.3,427.3,183.8z"/>
		<path class="st64" d="M440.9,161.6c-3.6,5.2-6,8.7-11.1,14.3c-2.7,3.1-6.5,7.4-10.8,13.2c-0.1,0.1-0.2,0.1-0.3,0.2
			c0.1-0.1,0.1-0.2,0.2-0.3c1-2,1.9-4,3-6l0.4-3l0.6,0.5c0,0-0.2-2.7,0.4-3.7l0.7,0.3c0,0,0.1-2.6,0.3-3.5l0.8,0.6
			c0,0,0-2.1,0.5-3.4l0.7,0.6c0,0,0.1-2.5,0.6-3.4l1,1c0,0,0.1-1.8,0.8-3.4l0.9,0.9c0,0,0.1-1.5,1-3.3l1.2,0.9c0,0,0-1.9,1.3-3.2
			l1.1,1.2c0,0-0.1-1.8,1.4-3.3l0.9,0.9c0,0,0.3-2.1,2.2-3l0.9,0.7l2.1-2.1l0.3,0.3c0,0,1.1-1.2,1.3-1.9s-0.1-1.2,0-1.4
			C443.7,152.6,445.7,154.6,440.9,161.6z"/>
	</g>
</g>
<linearGradient id="SVGID_51_" gradientUnits="userSpaceOnUse" x1="3009.9475" y1="-631.6594" x2="3100.291" y2="-631.6594" gradientTransform="matrix(-0.8327 0.5537 0.5537 0.8327 3526.562 -673.2755)">
	<stop  offset="0" style="stop-color:#7BCBB8"/>
	<stop  offset="0.1407" style="stop-color:#78CABC"/>
	<stop  offset="0.5953" style="stop-color:#71CAC5"/>
	<stop  offset="1" style="stop-color:#6EC9C8"/>
</linearGradient>
<path class="st69" d="M677.4,477.9c-2.1-3.8-6.7-6.9-11.5-7c-9.1-0.2-13.4,10.9-28.8,25.5c-6.4,6.1-12.4,10.5-16.5,13.2
	c-9.1-11.2-18.2-22.4-27.3-33.6c-4.6,0.7-9.1,1.3-13.6,2c0.8,7.1,3.1,18.1,9.6,29.6c4.3,7.5,18.1,32.3,39.1,32.2
	c15.2-0.1,25.5-12.9,35.3-25.3C669,507.8,683.9,489.3,677.4,477.9z"/>
<path class="st70" d="M659.4,814.6c-0.4-8.9-0.8-17.7-1.3-26.5l14.3-0.5c-1.7,9.3-3.6,18.6-5.3,27.9c-1.2,1.5-3.2,2.2-4.8,1.7
	C660.2,816.7,659.5,814.9,659.4,814.6z"/>
<path class="st71" d="M650,823.6c-4.2,0-7.3,0-11.6-0.5c0.3-0.4,0.6-0.7,0.7-0.7c5.6-3.1,9.9-5.5,12.6-7.1l4.2-2
	c2-1,3.1-1.5,4.2-1.1c0.8,0.3,0.7,0.7,1.7,1.3c0.5,0.3,1.7,0.9,3.2,0.5c1.2-0.3,1.9-1.2,2.1-1.6c0,0,4.7,2.6,2.5,9.7
	c-1.1,0.2-2.6,0.5-4.6,0.7C659.2,823.7,654.4,823.7,650,823.6z"/>
<path class="st72" d="M638.4,823.1c4.3,0.5,7.4,0.5,11.6,0.5c4.4,0,9.1,0,15.3-0.8c1.9-0.3,3.5-0.5,4.6-0.7c0,0,1.9,2.3-1.2,4.1
	l-30.3-0.7c-0.1-0.2-0.4-0.9-0.1-1.8C638.2,823.4,638.3,823.3,638.4,823.1z"/>
<linearGradient id="SVGID_52_" gradientUnits="userSpaceOnUse" x1="5724.1235" y1="-85.007" x2="5696.2144" y2="-283.717" gradientTransform="matrix(-1 0 0 1 6364.9766 900)">
	<stop  offset="0" style="stop-color:#C06C84"/>
	<stop  offset="6.739396e-02" style="stop-color:#B66A83"/>
	<stop  offset="0.3186" style="stop-color:#9B6481"/>
	<stop  offset="0.5626" style="stop-color:#896180"/>
	<stop  offset="0.7942" style="stop-color:#7E5E7F"/>
	<stop  offset="1" style="stop-color:#7A5E7E"/>
</linearGradient>
<path class="st73" d="M640.9,578.8c5.2,0.1,10.3,0.2,15.5,0.3c4.9,29.9,19,58.9,19,58.9c-0.1,56.4-0.2,112.9-0.4,169.3
	c-6.2,0.5-12.5,1-18.7,1.5c-8-34.3-15.1-75.7-17.6-122.8C636.5,645.9,638,609.8,640.9,578.8z"/>
<path class="st70" d="M729.9,815.8c-2-8.7-4.1-17.2-6.2-25.9l13.8-3.1c0,9.5,0,18.9,0,28.4c-0.9,1.7-2.6,2.7-4.5,2.5
	C731.1,817.8,730,816.1,729.9,815.8z"/>
<path class="st71" d="M720.5,823.5c-4.2,0.1-7.3,0.1-11.6-0.2c0.3-0.4,0.6-0.7,0.7-0.8c5.5-3.3,9.8-5.8,12.4-7.4l4.2-2.1
	c2-1,3.1-1.6,4.2-1.2c0.8,0.3,0.7,0.7,1.8,1.2c0.5,0.3,1.7,0.8,3.2,0.5c1.2-0.3,1.8-1.2,2.1-1.6c0,0,4.7,2.4,2.9,9.7
	c-1.1,0.2-2.6,0.5-4.6,0.9C729.6,823.3,724.8,823.4,720.5,823.5z"/>
<path class="st72" d="M708.8,823.3c4.3,0.4,7.4,0.3,11.6,0.2c4.4-0.1,9.1-0.2,15.2-1.2c1.9-0.3,3.5-0.6,4.6-0.9c0,0,2,2.2-1,4.2
	l-30.3,0.1c-0.1-0.2-0.4-0.9-0.2-1.8C708.6,823.6,708.7,823.5,708.8,823.3z"/>
<linearGradient id="SVGID_53_" gradientUnits="userSpaceOnUse" x1="-2210.3899" y1="-209.0672" x2="-2097.6294" y2="-209.0672" gradientTransform="matrix(1 0 0 1 2840.093 900)">
	<stop  offset="0" style="stop-color:#C06C84"/>
	<stop  offset="6.739396e-02" style="stop-color:#B66A83"/>
	<stop  offset="0.3186" style="stop-color:#9B6481"/>
	<stop  offset="0.5626" style="stop-color:#896180"/>
	<stop  offset="0.7942" style="stop-color:#7E5E7F"/>
	<stop  offset="1" style="stop-color:#7A5E7E"/>
</linearGradient>
<path class="st74" d="M710.7,580c0.5,6,1.2,14.5,2.2,24.5c0.3,3.2,3.8,38.3,8.2,72.4c7.3,55.7,17.6,109.4,21.3,128.5
	c-6.6,0.9-13.3,1.9-20,2.9c-13-32.7-25.7-68.8-36.6-108.2c-5.4-19.6-10.1-38.5-14.1-56.7c-4.4-8.3-9-18.4-12.9-30.1
	c-5-14.9-7.6-28.4-9-39.6C670.2,575.7,690.4,577.9,710.7,580z"/>
<linearGradient id="SVGID_54_" gradientUnits="userSpaceOnUse" x1="3399.3096" y1="-372.7028" x2="3470.1863" y2="-372.7028" gradientTransform="matrix(-1 0 0 1 4110.0332 900)">
	<stop  offset="0" style="stop-color:#7BCBB8"/>
	<stop  offset="0.1407" style="stop-color:#78CABC"/>
	<stop  offset="0.5953" style="stop-color:#71CAC5"/>
	<stop  offset="1" style="stop-color:#6EC9C8"/>
</linearGradient>
<path class="st75" d="M641.5,535.1c1.6-19.8,3.5-28.3,6.7-36.9c3.9-10,8.7-17.5,12.3-22.5c1.7,0.3,3.5,0.6,5.2,0.9
	c0.1-0.3,0.2-0.6,0.2-1c1.5,0.4,3.3,0.6,5.3,0.5c6.1-0.2,10.4-3.1,11.9-4.2c2.2,1.3,5.4,3.7,8.5,7.2c1.4,1.7,3.8,4.8,5.7,9.6
	c8,19.9,11.6,65.4,11.6,65.4c0.4,4.1,0.7,8.3,1,12.5c0.3,4.8,0.6,9.5,0.9,14.2c-23.6,0.6-47.1,1.2-70.8,1.8
	C639.7,563.5,640.5,547.3,641.5,535.1z"/>
<path class="st70" d="M678.4,456.4c-2.5,0-6.8,0.3-11.6,2.4c-3.4,1.5-5.8,3.5-7.4,4.9c0.6,4.1,1.1,8.2,1.7,12.3
	c2.2,0.6,7,1.6,12.7,0.3c4.4-1,7.5-3.1,9.4-4.4C681.6,466.8,679.9,461.6,678.4,456.4z"/>
<path class="st76" d="M660.4,466.9c-0.1,0.5-0.2,1.1-0.3,1.6c0.2,1.8,0.5,3.7,0.7,5.5c1.4-0.4,4.4-1.4,7.1-4.2c3-3,3.9-6.2,4.2-7.6
	c-1.3,0-3.1,0.1-5,0.7C663.7,463.9,661.5,465.7,660.4,466.9z"/>
<linearGradient id="SVGID_55_" gradientUnits="userSpaceOnUse" x1="3419.5244" y1="-458.4692" x2="3463.009" y2="-458.4692" gradientTransform="matrix(-1 0 0 1 4110.0332 900)">
	<stop  offset="0" style="stop-color:#0D2335"/>
	<stop  offset="1" style="stop-color:#0B3150"/>
</linearGradient>
<path class="st77" d="M652.2,435.2c-0.7-0.5-5.5-3.8-5.2-8.2c0.1-2.2,1.4-3.8,1.9-4.3c5.3-6.2,26.3-8.7,36.6,3.5
	c6.3,7.3,5,17.2,4.6,19.3c-2.1,13.3-14,19.4-15.3,20.1c-1.7-1.1-3.6-2.3-5.3-3.9C659.4,453.3,654.6,442.5,652.2,435.2z"/>
<path class="st70" d="M672.9,454.8c1.7,0.3,2.6-0.2,3.1-0.4c2.9-1.7,2.1-7.3,0.3-8.6c-1-0.6-1.9-0.5-1.9-0.5c-0.1,0-0.5,0.1-0.9,0.3
	c-1.8,1-2.3,4-2.3,4c-0.4-0.3-0.8-0.7-1.2-1c1.7-6.6-1.4-13-6.6-15.1c-5.3-2-10.5,1.4-11,1.7c-0.6,1.8-1.3,3.8-1.9,5.8
	c-0.8,2.9-1.4,5.5-1.9,8c-0.4,0.3-0.9,0.8-0.9,1.4c0,0.6,0.4,0.8,0.8,1.5c0.4,0.8,0.3,1.6,0.3,2.2c0,2.6,0.6,6.9,1,9.1
	c0.6,2.7,0.9,4.2,1.7,5.1c3.9,3.9,13.8-1.4,17.6-3.6c1.7-0.9,4.1-2.3,4.3-4.5c0-0.4,0-1.1-0.1-2.5
	C673.1,456.7,673,455.6,672.9,454.8z"/>
<path class="st70" d="M672.9,454.8c1.7,0.3,2.6-0.2,3.1-0.4c2.9-1.7,2.1-7.3,0.3-8.6c-1-0.6-1.9-0.5-1.9-0.5c-0.1,0-0.5,0.1-0.9,0.3
	c-1.8,1-2.3,4-2.3,4c-0.4-0.3-0.8-0.7-1.2-1c1.7-6.6-1.4-13-6.6-15.1c-5.3-2-10.5,1.4-11,1.7c-0.6,1.8-1.3,3.8-1.9,5.8
	c-0.8,2.9-1.4,5.5-1.9,8c-0.4,0.3-0.9,0.8-0.9,1.4c0,0.6,0.4,0.8,0.8,1.5c0.4,0.8,0.3,1.6,0.3,2.2c0,2.6,0.6,6.9,1,9.1
	c0.6,2.7,0.9,4.2,1.7,5.1c3.9,3.9,13.8-1.4,17.6-3.6c1.7-0.9,4.1-2.3,4.3-4.5c0-0.4,0-1.1-0.1-2.5
	C673.1,456.7,673,455.6,672.9,454.8z"/>
<path class="st19" d="M655.2,459.4c0,3-2.3,5.4-5.2,5.6c-0.1-0.5-0.2-1-0.3-1.6c-0.2-1-0.4-2.4-0.6-4H655.2z"/>
<linearGradient id="SVGID_56_" gradientUnits="userSpaceOnUse" x1="3399.2515" y1="-355.5108" x2="3470.1982" y2="-355.5108" gradientTransform="matrix(-1 0 0 1 4110.0332 900)">
	<stop  offset="0" style="stop-color:#7A5E7E"/>
	<stop  offset="0.2058" style="stop-color:#7E5E7F"/>
	<stop  offset="0.4374" style="stop-color:#896180"/>
	<stop  offset="0.6814" style="stop-color:#9B6481"/>
	<stop  offset="0.9326" style="stop-color:#B66A83"/>
	<stop  offset="1" style="stop-color:#C06C84"/>
</linearGradient>
<path class="st78" d="M670.5,536.8l36.4-1.6c1.3,10.9,2,19,2,19c0.4,4.1,0.7,8.3,1,12.5c0.3,4.8,0.6,9.5,0.9,14.2
	c-8.7,2.2-19.3,4.3-31.9,4.9c-15.6,0.7-28.8-0.9-38.9-3c-0.5-14.4,0.1-30.3,1.5-47.7c1-12.7,2.1-20.9,3.8-27.3l22.5-4.9L670.5,536.8
	z"/>
<g>
	
		<linearGradient id="SVGID_57_" gradientUnits="userSpaceOnUse" x1="3405.7683" y1="-395.003" x2="3456.3447" y2="-395.003" gradientTransform="matrix(-1 0 0 1 4110.0332 900)">
		<stop  offset="0" style="stop-color:#7A5E7E"/>
		<stop  offset="0.2058" style="stop-color:#7E5E7F"/>
		<stop  offset="0.4374" style="stop-color:#896180"/>
		<stop  offset="0.6814" style="stop-color:#9B6481"/>
		<stop  offset="0.9326" style="stop-color:#B66A83"/>
		<stop  offset="1" style="stop-color:#C06C84"/>
	</linearGradient>
	<path class="st79" d="M700.6,536.6h3.7c0-0.1,0-13.3-2.2-27.3c-0.9-6-5.6-26.9-16.8-33.4c-1.2-0.7-4.3-2.5-8.3-2.5
		c-4.6,0-7.9,2.1-9,2.9c-1.6,1.1-6,4.4-14.3,30.5c0,0.1-0.1,0.2-0.1,0.2l5.4-1.2c0-0.1,5.8-22.4,13.6-26.2c3.4-1.6,7.1-1.7,11.2-0.2
		C697.5,484.5,700.6,522.5,700.6,536.6z"/>
</g>
<polygon class="st80" points="580.4,477 504.8,475.7 502.6,602.7 578.3,603.9 654.6,605.2 656.8,478.3 "/>
<g>
	<path class="st19" d="M630,489.8l-0.2,13.3h2.6c0.1-4,0.2-10.3,0.2-13.3H630z"/>
	
		<rect x="627.2" y="496" transform="matrix(1.703549e-02 -0.9999 0.9999 1.703549e-02 126.6876 1121.72)" class="st19" width="13.3" height="0.9"/>
	
		<rect x="618.1" y="494.6" transform="matrix(1.704586e-02 -0.9999 0.9999 1.704586e-02 117.8966 1112.5361)" class="st19" width="13.3" height="3.5"/>
	
		<rect x="621.5" y="495.7" transform="matrix(1.704045e-02 -0.9999 0.9999 1.704045e-02 121.099 1115.9799)" class="st19" width="13.3" height="1.4"/>
	
		<rect x="631.2" y="495" transform="matrix(1.705375e-02 -0.9999 0.9999 1.705375e-02 130.5566 1125.8409)" class="st19" width="13.3" height="3.1"/>
	<path class="st19" d="M646.6,490.1h-0.3c0,3-0.2,9.8-0.2,13.3h0.3L646.6,490.1z"/>
	
		<rect x="637.7" y="496.1" transform="matrix(1.704603e-02 -0.9999 0.9999 1.704603e-02 136.86 1132.4283)" class="st19" width="13.3" height="0.9"/>
	
		<rect x="636.8" y="496.3" transform="matrix(1.703255e-02 -0.9999 0.9999 1.703255e-02 136.0059 1131.535)" class="st19" width="13.3" height="0.6"/>
	
		<rect x="635.2" y="496.1" transform="matrix(1.702487e-02 -0.9999 0.9999 1.702487e-02 134.537 1129.8959)" class="st19" width="13.3" height="0.8"/>
	<g>
		<path class="st19" d="M623.4,505.5h0.2v-1.6h-0.2L623,504v0.2l0.3-0.1l0,0L623.4,505.5z"/>
		<path class="st19" d="M626.4,505.5v-0.2h-0.7l0,0l0.1-0.1c0.3-0.3,0.6-0.6,0.6-0.9c0-0.2-0.1-0.5-0.5-0.5c-0.2,0-0.4,0.1-0.5,0.2
			l0.1,0.2c0.1-0.1,0.2-0.1,0.3-0.1c0.2,0,0.3,0.2,0.3,0.3c0,0.2-0.2,0.5-0.6,0.8l-0.2,0.2v0.1H626.4z"/>
		<path class="st19" d="M627.7,505.5c0.1,0.1,0.2,0.1,0.4,0.1c0.4,0,0.6-0.2,0.6-0.5c0-0.2-0.2-0.4-0.4-0.4l0,0
			c0.2-0.1,0.3-0.2,0.3-0.4c0-0.2-0.1-0.4-0.5-0.4c-0.2,0-0.3,0.1-0.4,0.1l0.1,0.2c0.1,0,0.2-0.1,0.3-0.1c0.2,0,0.3,0.1,0.3,0.3
			c0,0.2-0.2,0.3-0.4,0.3h-0.1v0.2h0.1c0.2,0,0.4,0.1,0.4,0.3c0,0.1-0.1,0.3-0.4,0.3c-0.2,0-0.3-0.1-0.4-0.1L627.7,505.5z"/>
		<path class="st19" d="M630.9,505.6v-0.4h0.2v-0.2h-0.2v-1h-0.2l-0.7,1v0.1h0.8v0.4L630.9,505.6z M630.2,504.9L630.2,504.9l0.4-0.6
			c0-0.1,0.1-0.1,0.1-0.2l0,0c0,0.1,0,0.2,0,0.3v0.5H630.2z"/>
		<path class="st19" d="M633.5,503.9h-0.8l-0.1,0.8c0.1,0,0.1,0,0.2,0c0.3,0,0.5,0.2,0.5,0.4c0,0.2-0.2,0.4-0.4,0.3
			c-0.1,0-0.3-0.1-0.3-0.1l-0.1,0.2c0.1,0.1,0.2,0.1,0.4,0.1c0.4,0,0.6-0.2,0.6-0.5c0-0.2-0.1-0.3-0.2-0.4c-0.1-0.1-0.2-0.1-0.3-0.1
			c-0.1,0-0.1,0-0.1,0l0.1-0.4h0.6L633.5,503.9z"/>
		<path class="st19" d="M635.8,503.9c0,0-0.1,0-0.2,0c-0.2,0-0.4,0.1-0.5,0.2c-0.2,0.2-0.3,0.4-0.3,0.7c0,0.4,0.2,0.7,0.6,0.7
			c0.3,0,0.5-0.3,0.6-0.6c0-0.3-0.2-0.5-0.5-0.5c-0.2,0-0.3,0.1-0.4,0.2l0,0c0-0.3,0.2-0.5,0.6-0.6c0.1,0,0.1,0,0.2,0L635.8,503.9z
			 M635.4,505.5c-0.2,0-0.4-0.2-0.4-0.5v-0.1c0.1-0.1,0.2-0.2,0.3-0.2c0.2,0,0.3,0.1,0.3,0.4C635.7,505.4,635.6,505.5,635.4,505.5z"
			/>
		<path class="st19" d="M637.4,504v0.2h0.8l0,0l-0.7,1.4h0.2l0.7-1.5V504L637.4,504z"/>
		<path class="st19" d="M640.2,505.8c0.3,0,0.6-0.2,0.6-0.5c0-0.2-0.1-0.3-0.3-0.4l0,0c0.2-0.1,0.3-0.2,0.3-0.4s-0.2-0.4-0.5-0.4
			c-0.3,0-0.5,0.2-0.5,0.4c0,0.1,0.1,0.3,0.3,0.4l0,0c-0.2,0.1-0.3,0.2-0.3,0.4C639.6,505.6,639.8,505.8,640.2,505.8z M640.2,505.6
			c-0.2,0-0.3-0.2-0.3-0.3c0-0.2,0.1-0.3,0.3-0.3c0.2,0.1,0.4,0.2,0.4,0.4C640.5,505.5,640.4,505.6,640.2,505.6z M640.2,504.1
			c0.2,0,0.3,0.1,0.3,0.3c0,0.1-0.1,0.2-0.3,0.3c-0.2-0.1-0.3-0.1-0.3-0.3C639.9,504.3,640,504.1,640.2,504.1z"/>
		<path class="st19" d="M642.8,505.8c0.1,0,0.1,0,0.2,0c0.2,0,0.4-0.1,0.5-0.2c0.2-0.2,0.3-0.4,0.3-0.8c0-0.4-0.2-0.7-0.5-0.7
			c-0.3,0-0.6,0.3-0.6,0.6c0,0.3,0.2,0.5,0.5,0.5c0.2,0,0.3-0.1,0.4-0.2l0,0c0,0.2-0.1,0.3-0.2,0.4c-0.1,0.1-0.2,0.1-0.3,0.2
			c-0.1,0-0.1,0-0.2,0L642.8,505.8z M643.2,504.2c0.2,0,0.3,0.2,0.3,0.5v0.1c-0.1,0.1-0.2,0.2-0.3,0.2c-0.2,0-0.3-0.1-0.3-0.4
			C642.9,504.4,643,504.2,643.2,504.2z"/>
		<path class="st19" d="M646.1,504.1c-0.3,0-0.6,0.3-0.6,0.8c0,0.5,0.2,0.8,0.5,0.8c0.4,0,0.6-0.3,0.6-0.9
			C646.6,504.4,646.4,504.1,646.1,504.1z M646.1,504.3c0.2,0,0.3,0.3,0.3,0.7c0,0.4-0.1,0.7-0.3,0.7c-0.2,0-0.3-0.2-0.3-0.7
			C645.7,504.5,645.9,504.2,646.1,504.3z"/>
	</g>
</g>
<g>
	<g>
		<polygon class="st19" points="624,578.5 624.2,567.2 621.6,567.2 625.6,563 629.7,567.2 626.9,567.1 626.7,578.6 		"/>
	</g>
	<g>
		<polygon class="st19" points="614.2,578.3 614.5,566.9 611.8,566.9 615.8,562.8 620,566.9 617.1,566.8 616.9,578.3 		"/>
	</g>
	<g>
		
			<rect x="619.2" y="572" transform="matrix(1.704028e-02 -0.9999 0.9999 1.704028e-02 28.9872 1191.0051)" class="st19" width="2" height="17.6"/>
	</g>
	<g>
		<path class="st19" d="M635.1,557.9l-29.6-0.5l-0.5,29l29.6,0.5L635.1,557.9z M607.3,559.3l26,0.4l-0.4,25.4l-26-0.4L607.3,559.3z"
			/>
	</g>
</g>
<g>
	<g>
		<path class="st19" d="M585.6,561.6l-7.3-0.1c-0.2,0.6-0.4,1.2-0.7,1.9c-0.2,0.5-0.3,0.8-0.3,1.1c-0.1,0.5-0.2,0.9-0.9,1.8
			c-0.4,0.5-0.7,0.8-1,0.9c0,0,0,0.1-0.1,0.1c-0.2,0.4-0.5,0.9-0.7,1.4c1.6,1.4,3.5,1.6,3.5,1.6h1.5
			C586,569.2,585.6,561.6,585.6,561.6z"/>
	</g>
	<g>
		<path class="st19" d="M575.3,566.2L575.3,566.2c0.1-0.1,0.2-0.2,0.5-0.5c0.6-0.8,0.6-1,0.7-1.3c0-0.3,0.1-0.7,0.4-1.3
			c0.2-0.5,0.4-1.1,0.6-1.5l-5.6-0.1c0,3.3,0.9,5.3,2.1,6.6c0.2-0.4,0.4-0.8,0.6-1.2C574.7,566.6,574.8,566.2,575.3,566.2z"/>
	</g>
	<g>
		
			<rect x="577.8" y="576.5" transform="matrix(1.704584e-02 -0.9999 0.9999 1.704584e-02 -11.6362 1149.2435)" class="st19" width="1.7" height="8"/>
	</g>
	<g>
		
			<rect x="573.8" y="574.7" transform="matrix(1.718196e-02 -0.9999 0.9999 1.718196e-02 -6.3583 1143.9832)" class="st19" width="9.8" height="1.1"/>
	</g>
	<g>
		<path class="st19" d="M594.3,557.1l-29.6-0.5l-0.5,29l29.6,0.5L594.3,557.1z M566.5,558.5l26,0.4l-0.4,25.4l-26-0.4L566.5,558.5z"
			/>
	</g>
</g>
<path class="st19" d="M599.7,477.4l-19.2-0.3l-18.7-0.3l-0.7,46.3h2.1l3.9-6h1.8l-0.1,6h2.2l3.7-6h2.9l-0.1,6.1h2.2l0,0l0,0
	c0.2,0,0.4,0,0.5,0l3-5.9h2.1l-0.1,5.9h3l3.4-6h2.2l-0.1,6.1l3.1,0.1l2.7-6C599.6,517.6,599.1,487.9,599.7,477.4z"/>
<g>
	<path class="st19" d="M534.5,587.2h0.5l0.2-7.8c0,0-0.1-0.1-0.2-0.2c-0.1,0-0.3,0-0.3,0.2C534.6,582,534.5,584.7,534.5,587.2z"/>
	<path class="st63" d="M534.9,587.3h-0.2l0.2-7.9c0,0,0,0,0.1,0s0.1,0,0.1,0.1L534.9,587.3z"/>
	<path class="st19" d="M536,579.7c0.6,0.3-1.8,0-1.8,0C534.1,579.6,534.2,578.9,536,579.7z"/>
	<path class="st19" d="M533.9,553l1.1,1.4l0.1-0.2l0.6,1.5l0.7-0.7c0.7,0.6,0.7,1.7,0.7,1.7c0.2,0,0.9-0.3,0.9-0.3
		c0.4,0.9,0,1.9,0,1.9h0.8c0.3,1.5-0.6,2.1-0.6,2.1l1.1-0.1c0,0.9-0.7,1.8-0.7,1.8l0.8-0.1c-0.1,0.7-0.7,1.8-0.7,1.8h0.8
		c-0.1,1.7-0.9,2.1-0.9,2.1l0.9,0.2c-0.1,0.7-1.1,1.6-1.1,1.6l0.7,0.1l-1,1.8l0.5-0.1c-0.2,0.5-1.4,2.1-1.4,2.1l0.5,0.1l-1.1,1.7
		l0.3,0.1c-0.6,1.7-1.2,3.6-1.8,5.3c-0.1,0-0.2,0-0.3,0.1c0-0.1-0.1-0.1-0.1-0.2c0-0.6,0-1.2-0.1-1.8
		C534.6,569.2,534.3,561.1,533.9,553z"/>
	<path class="st19" d="M533.6,576c0,0,0-0.1-0.5-1.7l0,0c0-0.1,0.3,0,0.3,0c-0.5-0.7-1-1.6-1-1.6h0.4c-0.7-0.6-0.9-2.2-0.9-2.2h0.3
		c-1-0.8-1-1.8-1-1.8h0.4c-0.7-0.5-1-1.7-1-1.7l0.6-0.2c-0.9-0.6-1-1.6-1-1.6h0.7c-0.9-0.6-1.1-1.9-1.1-1.9h0.9
		c-0.5-0.7-0.7-1.5-0.7-1.5h0.9c-0.5-0.7-0.6-2-0.6-2l1.1-0.1c-0.6-0.8-0.3-2.1-0.3-2.1l1,0.3c-0.2-1,0.5-2,0.5-2l0.7,0.4
		c-0.1-0.7,0.5-1.2,0.5-1.2l0.2,0.3l-0.6-2.5l0.4,0.5c0.2,0.4,0.5,1.3,0.7,3.1c0.3,2.7,0.3,17.7,0.3,23.1c0,0.1,0.1,0.1,0.1,0.2
		c-0.2,0-0.3-0.1-0.5-0.1C534.2,577.3,533.9,576.4,533.6,576z"/>
	<path class="st19" d="M517.3,561.2c0,0,14.5,13.6,17.3,18.1c0.2,0,0.3,0.1,0.5,0.1c-0.2,0-0.5,0-0.7,0.1c-0.4-0.5-0.9-1.1-1.6-1.6
		c-1.1-0.9-2.1-1.4-3-1.7l0.2-0.3l-2.1-0.8l0.3-0.2l-2.3-1l0.3-0.3c-0.7,0.2-1.7-0.6-1.7-0.6l0.4-0.5c-0.9,0.3-1.7-0.6-1.7-0.6
		c0.2-0.1,0.4-0.5,0.4-0.5c-0.5,0.2-1.6-0.7-1.6-0.7c0.2,0,0.5-0.3,0.5-0.3c-0.7,0-1.4-0.7-1.4-0.7l0.7-0.5c-0.9-0.2-1.4-1-1.4-1
		l0.6-0.4c-0.8-0.3-1.3-1.1-1.3-1.1s1.5-0.3,0.8-0.5c-0.7-0.2-1.3-1.4-1.3-1.4l0.7-0.1c-0.6-0.4-0.7-0.9-0.9-1.6
		C518.6,562.2,517.6,561.4,517.3,561.2L517.3,561.2C517.2,561.2,517.3,561.2,517.3,561.2z"/>
	<path class="st19" d="M517.3,561.2c0.8,0,3.4,1.7,3.4,1.7l0.1-0.3c0.6,0.3,1.3,1.1,1.3,1.1l0.4-0.4c0.8,0.1,1.3,1.3,1.3,1.3
		l0.5-0.6c0.9,0.2,1.1,1.5,1.1,1.5l0.5-0.6c0.6,0.2,1,1.6,1,1.7c0,0.4,0.5-0.7,0.5-0.7c0.5,0.1,0.7,1.3,0.7,1.3l0.6-0.4
		c0.5,1.1,0.4,1.7,0.4,1.7l0.6-0.4c0.1,0.4,0.4,1.9,0.4,1.9l0.5-0.5c0.3,0.7,0.5,2.1,0.5,2.1l0.5-0.3l0.4,2.1l0.3-0.2l0.4,2.1h0.3
		c0.6,1.2,1.1,2.4,1.7,3.7c0,0.1,0.1,0.1,0.1,0.2c-0.2,0-0.3-0.1-0.5-0.1c-3-3.5-6.1-7.1-9.7-10.8
		C522.1,565.7,517.1,561,517.3,561.2L517.3,561.2z"/>
	<path class="st19" d="M520.1,574.3l0.1-0.5c0.8,0.2,1.7,0.5,1.7,0.5l0.1-0.6c0.5,0.1,1.4,0.5,1.4,0.5l0.1-0.5
		c0.7,0.2,1.2,0.8,1.2,0.8l0.3-0.6c0.4,0.1,1.1,0.9,1.1,0.9l0.2-0.5l1.3,1l0.1-0.5l1.3,1.2l0.2-0.3l1.3,1.2v-0.4
		c0.6,0.5,1.4,1,2.2,1.6c0.8,0.5,1.5,0.8,2.2,1.1c-0.3,0-0.5-0.1-0.8-0.1c-3.8-0.6-8-1.6-12.7-3.4c-2-0.7-3.9-1.5-5.6-2.2
		c0.6,0.2,1.3,0.4,2.1,0.5C518.8,574.3,519.6,574.3,520.1,574.3z"/>
	<path class="st19" d="M534.4,579.6c-0.9-0.1-1.9-0.2-2.9-0.3l-1.1,0.6v-0.4l-1,0.3h-0.1l0.2-0.4l-2.1,0.5l0.1-0.4
		c-0.2,0.1-2,0.5-2,0.5l0.1-0.5c-0.8,0.3-1.9,0.3-1.9,0.3l0.2-0.6c-0.9,0.3-1.7,0.2-1.7,0.2l0.4-0.7c-1,0.3-2-0.1-2-0.1l0.7-0.6
		c-1.2,0.2-2-0.4-2-0.4c0.2-0.1,0.6-0.7,0.6-0.7c-1.2,0-1.9-1-1.9-1l0.4-0.2c-0.6-0.2-2-2-2-2s8.9,4.3,18.2,5.5
		C534.2,579.3,534.3,579.5,534.4,579.6z"/>
	<path class="st19" d="M529.3,579.8l1,0.1l0.8-0.4c0.3,0,0.7,0.1,1.1,0.1c0.8,0,1.4-0.1,2-0.2c0.3,0,0.5,0,0.8,0l0,0
		c-0.2,0.2-0.5,0.1-0.8,0.1c-4,1.6-8,3.2-12,4.8c0.1-0.2,2-1.9,2.3-1.9c0.3-0.1,0.3-0.3,0.3-0.3l-0.2-0.1c0,0,0.6-0.6,1.4-0.5
		l-0.1-0.5c0,0,0.6-0.4,1.4-0.2l-0.2-0.5c0,0,0.8-0.2,1.5,0.1l-0.1-0.4L529.3,579.8l-0.1,0.2L529.3,579.8z"/>
	<path class="st19" d="M534.2,579.7l-2.7,2.6l-0.1-0.2l-1.3,1.4l-0.1-0.5c0,0-0.9,0.9-1.7,1.2v-0.6c0,0-0.6,0.5-1.9,0.7v-0.6
		l-3.9,0.7c0,0-0.2,0,0-0.2l12-4.8c0.3,0,0.6,0,0.8-0.1C534.8,579.5,534.5,579.6,534.2,579.7z"/>
	<path class="st19" d="M543,584.5v0.6c-1.6,0-1.9-1-1.9-1c0,0.2-0.2,0.7-0.2,0.7c-0.8-0.3-1.3-1.3-1.3-1.3l-0.3,0.3
		c-0.5-0.6-0.9-1.1-1.5-1.7c-0.9-1-1.8-1.8-2.6-2.6c4,1.9,7.9,4,11.9,5.9C545.6,585.1,544.3,584.8,543,584.5z"/>
	<path class="st19" d="M535.4,579.3c1.1-0.7,2.2-1.4,3.5-2l0.1,0.3l1.5-1l0.1,0.2l0.8-0.9l0.1,0.3c0,0,1.1-0.7,1.5-1v0.4
		c0,0,0.8-0.8,1.3-0.9l0.2,0.5c0,0,0.8-0.6,1.5-0.9l0.2,0.7c0,0,0.8-0.6,1.5-0.9l0.1,0.7c0,0,1.3-0.7,2-0.6l0.1,0.6
		c0,0,1-0.4,2.1-0.2c1.1,0.1,1.7-0.7,2.2-0.5C554.5,574,542.2,578.6,535.4,579.3c-0.1,0.1-0.2,0.1-0.4,0.1
		C535.1,579.4,535.3,579.3,535.4,579.3z"/>
	<path class="st19" d="M540.3,580.3c-1.6-0.2-3.3-0.5-4.9-0.7c-0.1-0.1-0.3-0.1-0.4-0.2c0.1,0,0.3,0,0.4,0c3.8-0.7,7.7-1.6,12-3
		c4-1.2,7-2.4,7-2.4c0.5,0.2-0.2,0.5-0.9,0.9c-0.6,0.4-0.8,1-1.2,1l0.3,0.2c0,0-0.6,0.8-1.7,0.8c0,0,0.3,0.6,0.4,0.6s-1.1,0.7-2,0.5
		c0,0,0.2,0.5,0.4,0.7c0,0-1,0.5-2.1,0.3l0.5,0.8c0,0-1.1,0.4-2-0.2l0.3,0.9c0,0-1.5,0-1.9-0.6l0.1,0.6c0,0-1.3,0-1.8-0.4v0.5
		c0,0-1.7-0.1-2.2-0.7v0.5c0,0-0.1,0-0.2-0.1v-0.1L540.3,580.3z"/>
	<path class="st19" d="M535.4,579.5c1.2,0.2,2.3,0.3,3.6,0.5v0.3h1.3h0.2v0.1l-0.1,0.3c0.5-0.2,1.5,0.2,1.5,0.2l-0.2,0.4
		c0.6,0,1.2,0.5,1.2,0.5l-0.3,0.3c0.5-0.1,1.4,0.4,1.4,0.4c-0.2,0.2-0.2,0.4-0.2,0.4c0.9,0.1,3,2.4,3,2.4l-11.3-5.6
		c-0.2-0.1-0.4-0.2-0.5-0.4C535.1,579.5,535.3,579.5,535.4,579.5z"/>
	<path class="st19" d="M539.7,576.6c-1.4,0.9-2.9,1.8-4.4,2.9c-0.1,0-0.2,0-0.4,0c0.1,0,0.1-0.1,0.2-0.1
		c5.3-10.4,8.5-13.7,10.4-14.7c0.4-0.2,2.5-1,3.3-2.9c0.2-0.7,0.2-1.3,0.1-1.8c0.1,0.1,0.3,0.3,0.5,0.5c0.4,0.6,0.3,1.4,0.2,1.7
		c0,0.4-0.4,1.3-0.4,1.3h0.6c0,0,0.3,0.9-0.8,1.6l0.9,0.1c0,0-0.3,1.2-1.2,1.5l0.9,0.2c0,0-0.1,1-1.4,1.3l0.8,0.5
		c0,0-0.7,0.9-1.8,1.1l0.7,0.4c0,0-0.5,1.1-1.6,0.8l0.7,0.5c0,0-0.4,0.9-1.6,0.7l0.6,0.5c0,0-0.6,0.7-1.8,0.6l0.5,0.4
		c0,0-0.8,0.9-1.9,0.8l0.3,0.4c0,0-1.1,0.8-1.9,0.6l0.4,0.3C540.8,576.1,540.3,576.3,539.7,576.6z"/>
	<path class="st19" d="M547.3,564.9c-1.9,2.7-3.4,4.6-6.1,7.4c-1.5,1.5-3.6,3.9-6,6.9c-0.1,0-0.1,0.1-0.2,0.1c0-0.1,0.1-0.1,0.1-0.2
		c0.5-1,1.1-2.1,1.6-3.2l0.3-1.6l0.3,0.3c0,0-0.1-1.4,0.3-1.9l0.4,0.2c0,0,0.1-1.4,0.2-1.8l0.4,0.3c0,0,0.1-1.1,0.3-1.8l0.4,0.3
		c0,0,0.1-1.3,0.4-1.8l0.5,0.6c0,0,0.1-1,0.5-1.7l0.5,0.5c0,0,0.1-0.8,0.6-1.7l0.6,0.5c0,0,0-1,0.7-1.7l0.6,0.6c0,0,0-1,0.8-1.7
		l0.5,0.5c0,0,0.2-1.1,1.2-1.5l0.5,0.4l1.2-1.1l0.2,0.1c0,0,0.6-0.6,0.7-1c0.1-0.4,0-0.6,0-0.7C548.9,560.1,550,561.3,547.3,564.9z"
		/>
</g>
<path class="st70" d="M601.5,558.4c-0.5-0.7-1.3-1.5-2.5-1.9c-0.7-0.2-1.2-0.2-4.7,0.4c0,0-1.9,0.3-5.9,1.5
	c-0.6,0.2-1.5,0.5-1.8,1.2c-0.1,0.4,0,0.9,0.2,1.2c0.3,0.5,1,0.8,1.7,0.7c1.6-0.3,3.3-0.5,5-0.8c-4.3,1.8-8.7,3.8-12.9,5.6
	c-0.8,0.3-1.1,1.2-0.8,1.9c0.3,0.7,1,1,1.8,0.8c2.4-0.8,5-1.6,7.4-2.5c-2.3,1.2-4.6,2.4-6.9,3.7c-0.8,0.3-1.2,1.1-1,1.8
	c0.2,0.8,1.2,1.3,2.1,1c2.4-1,4.8-1.9,7.2-3c-2.1,1.2-4.4,2.5-6.5,3.8c-0.6,0.5-0.8,1.3-0.6,1.9c0.3,0.8,1.4,1.1,2.3,0.6
	c2.2-1,4.5-2.1,6.7-3.2c-2,1.1-4,2.2-6,3.4c-0.4,0.5-0.4,1.2-0.1,1.7c0.3,0.5,0.9,0.8,1.5,0.6c7.5-3.6,13-6.4,15-7.5
	c0.5-0.3,1.4-0.8,2.2-1.8c0.5-0.6,0.7-1.2,0.9-1.8c1.4-0.2,2.9-0.4,4.3-0.7l-5.5-10.8C603.5,557.1,602.4,557.7,601.5,558.4z"/>
<linearGradient id="SVGID_58_" gradientUnits="userSpaceOnUse" x1="3293.8035" y1="-86.9888" x2="3411.8535" y2="-86.9888" gradientTransform="matrix(-0.7785 0.6277 0.6277 0.7785 3313.6167 -1510.5083)">
	<stop  offset="0" style="stop-color:#7BCBB8"/>
	<stop  offset="0.1407" style="stop-color:#78CABC"/>
	<stop  offset="0.5953" style="stop-color:#71CAC5"/>
	<stop  offset="1" style="stop-color:#6EC9C8"/>
</linearGradient>
<path class="st81" d="M687.3,480c-3-3.3-8.1-5.3-12.8-4.3c-11.1,2.3-13.5,21-20.3,35.3c-6.4,13.6-20.1,30.6-51.8,44.3
	c1.8,4.7,3.6,9.4,5.4,14.1c12.7-1.7,48.4-8.3,68.4-37.7C685.7,517.8,697.2,490.8,687.3,480z"/>
<g>
	<path class="st70" d="M585.9,475.1c0.1,3.3,0.3,6.4,0.4,9.7c0.1,1.2,1.2,2,2.2,1.8c0.9-0.1,1.6-1,1.5-2.1c0.2-3.3,0.3-6.5,0.5-9.8
		C587.8,472.8,585.9,475.1,585.9,475.1z"/>
	<path class="st70" d="M591,475.2c0.1,3.3,0.3,6.4,0.4,9.7c0.1,1.2,1.2,2,2.2,1.8c0.9-0.1,1.6-1,1.5-2.1c0.2-3.3,0.3-6.5,0.5-9.8
		C592.8,472.9,591,475.2,591,475.2z"/>
	<path class="st70" d="M581.3,474.7c0,3.1,0,6.1,0,9.3c-0.1,1.3,0.9,2.3,1.9,2.2c0.8,0,1.6-0.7,1.8-1.6c0.3-3.2,0.5-6.2,0.8-9.4
		C583.7,472.8,581.3,474.7,581.3,474.7z"/>
	<path class="st70" d="M577.6,474.1c-0.2,2.5-0.4,5.5-0.6,8.6c0.2,0.7,0.7,1.3,1.5,1.4c0.7,0.1,1.5-0.2,1.9-0.8
		c0.4-2.9,0.7-5.7,1.1-8.6C580,473.4,578.5,473.7,577.6,474.1z"/>
</g>
<g>
	<path class="st70" d="M645.7,198.1c0.1-0.1,0.2-0.3,0.3-0.5l7.9,0.5c4.4,0.5,8.9,1,13.2,1.5c0.8,0.1,1.4,0.8,1.3,1.5
		c-0.1,0.7-0.6,1.2-1.4,1.2c-2.4-0.1-5-0.1-7.4-0.2c2.4,0.5,4.9,0.9,7.3,1.4c0.8,0.1,1.4,0.7,1.4,1.4c0,0.8-0.7,1.5-1.6,1.4
		c-2.4-0.2-4.9-0.5-7.3-0.7c2.3,0.5,4.6,1.1,6.9,1.6c0.7,0.2,1.1,0.9,1,1.5c-0.1,0.8-0.9,1.4-1.9,1.2c-2.3-0.3-4.6-0.6-6.9-1
		c2.1,0.5,4.3,0.9,6.4,1.4c0.5,0.3,0.7,0.9,0.5,1.5c-0.2,0.5-0.6,0.9-1.2,1c-7.7-1.2-13.5-2.2-15.6-2.6c-0.5-0.1-1.5-0.3-2.5-1.1
		c-0.6-0.4-1-0.9-1.3-1.3c-1.5,0.1-3.1,0.2-4.7,0.3c0.6-3.9,1.3-7.6,1.9-11.5C643.3,197.3,644.5,197.7,645.7,198.1z"/>
	<path class="st70" d="M634.7,399.7c0.7-8.7,1.5-17.3,2.2-26l-14.5-0.5c1.4,9.2,2.7,18.3,4.2,27.6C629.3,400.4,632,400,634.7,399.7z
		"/>
	
		<linearGradient id="SVGID_59_" gradientUnits="userSpaceOnUse" x1="1487.4258" y1="-497.225" x2="1520.0551" y2="-497.225" gradientTransform="matrix(1 0 0 1 -863.7509 900)">
		<stop  offset="0" style="stop-color:#1B171A"/>
		<stop  offset="0.6452" style="stop-color:#312B30"/>
	</linearGradient>
	<path class="st82" d="M644.5,408.5c4.3-0.1,7.4-0.2,11.8-0.8c-0.3-0.4-0.6-0.7-0.8-0.7c-5.8-3.1-10.2-5.3-13-6.9l-4.4-1.9
		c-2.1-0.9-3.2-1.5-4.3-1c-0.8,0.3-0.7,0.7-1.7,1.3c-0.5,0.3-1.7,1-3.2,0.6c-1.2-0.3-1.9-1.2-2.2-1.5c0,0-4.7,2.7-2.3,10
		c1.1,0.2,2.7,0.4,4.7,0.6C635.2,408.8,640,408.6,644.5,408.5z"/>
	
		<linearGradient id="SVGID_60_" gradientUnits="userSpaceOnUse" x1="1487.4694" y1="-490.4147" x2="1520.4508" y2="-490.4147" gradientTransform="matrix(1 0 0 1 -863.7509 900)">
		<stop  offset="0" style="stop-color:#F8DF45"/>
		<stop  offset="0.1876" style="stop-color:#F8DA46"/>
		<stop  offset="0.4763" style="stop-color:#F7CC47"/>
		<stop  offset="0.8282" style="stop-color:#F7B447"/>
		<stop  offset="0.9462" style="stop-color:#F7AA47"/>
	</linearGradient>
	<path class="st83" d="M656.3,407.7c-4.4,0.6-7.5,0.7-11.8,0.8c-4.5,0.1-9.3,0.3-15.5-0.4c-1.9-0.2-3.6-0.4-4.7-0.6
		c0,0-1.9,2.4,1.3,4.2l30.9-1.5c0.1-0.2,0.4-0.9,0.1-1.8C656.5,408,656.4,407.8,656.3,407.7z"/>
	<path class="st70" d="M689.4,394.5c-1.8-8.5-3.7-17-5.4-25.5l-14.1,3.7c4.1,8.3,8,16.8,12.1,25.2
		C684.5,396.7,687,395.6,689.4,394.5z"/>
	
		<linearGradient id="SVGID_61_" gradientUnits="userSpaceOnUse" x1="1541.8485" y1="-501.582" x2="1574.4778" y2="-501.582" gradientTransform="matrix(1 0 0 1 -863.7509 900)">
		<stop  offset="0" style="stop-color:#1B171A"/>
		<stop  offset="0.6452" style="stop-color:#312B30"/>
	</linearGradient>
	<path class="st84" d="M699,404.1c4.3-0.1,7.4-0.2,11.8-0.8c-0.3-0.4-0.6-0.7-0.8-0.7c-5.8-3-10.2-5.3-13-6.9l-4.4-1.9
		c-2.1-0.9-3.2-1.5-4.3-1c-0.8,0.3-0.7,0.7-1.7,1.3c-0.5,0.3-1.7,1-3.2,0.6c-1.2-0.3-1.9-1.2-2.2-1.5c0,0-4.7,2.7-2.3,10
		c1.1,0.2,2.7,0.4,4.7,0.6C689.6,404.4,694.5,404.3,699,404.1z"/>
	
		<linearGradient id="SVGID_62_" gradientUnits="userSpaceOnUse" x1="1541.9061" y1="-494.7932" x2="1574.8877" y2="-494.7932" gradientTransform="matrix(1 0 0 1 -863.7509 900)">
		<stop  offset="0" style="stop-color:#F8DF45"/>
		<stop  offset="0.1876" style="stop-color:#F8DA46"/>
		<stop  offset="0.4763" style="stop-color:#F7CC47"/>
		<stop  offset="0.8282" style="stop-color:#F7B447"/>
		<stop  offset="0.9462" style="stop-color:#F7AA47"/>
	</linearGradient>
	<path class="st85" d="M710.8,403.3c-4.4,0.6-7.5,0.7-11.8,0.8c-4.5,0.1-9.3,0.3-15.5-0.4c-1.9-0.2-3.6-0.4-4.7-0.6
		c0,0-1.9,2.4,1.3,4.2l30.9-1.5c0.1-0.2,0.4-0.9,0.1-1.8C711,403.7,710.9,403.5,710.8,403.3z"/>
	
		<linearGradient id="SVGID_63_" gradientUnits="userSpaceOnUse" x1="1466.6196" y1="-610.7373" x2="1556.3007" y2="-511.1701" gradientTransform="matrix(1 0 0 1 -863.7509 900)">
		<stop  offset="0" style="stop-color:#C06C84"/>
		<stop  offset="6.739396e-02" style="stop-color:#B66A83"/>
		<stop  offset="0.3186" style="stop-color:#9B6481"/>
		<stop  offset="0.5626" style="stop-color:#896180"/>
		<stop  offset="0.7942" style="stop-color:#7E5E7F"/>
		<stop  offset="1" style="stop-color:#7A5E7E"/>
	</linearGradient>
	<path class="st86" d="M675.7,391.5c-12.2-27.6-24.5-55.2-36.8-82.8c-9.7,3.2-25.2,6.9-44.4,6c-18.3-0.8-41.9-1.9-55.7-19.3
		c-11-13.8-10.4-31.5-9.3-40.2c9.7-4.2,19.2-8.5,28.9-12.6c3,4.5,5.9,9.1,8.9,13.5c11.2,1.8,27.8,4.8,48.1,8.5
		c31.4,5.7,42.8,8.2,51.3,18.2c6.1,7.1,7.8,14.8,9.6,22c4.6,18.6,10.2,46.2,13.8,82.7C685.3,388.8,680.5,390.2,675.7,391.5z"/>
	
		<linearGradient id="SVGID_64_" gradientUnits="userSpaceOnUse" x1="1370.7057" y1="-578.0649" x2="1517.717" y2="-578.0649" gradientTransform="matrix(1 0 0 1 -863.7509 900)">
		<stop  offset="0" style="stop-color:#C06C84"/>
		<stop  offset="6.739396e-02" style="stop-color:#B66A83"/>
		<stop  offset="0.3186" style="stop-color:#9B6481"/>
		<stop  offset="0.5626" style="stop-color:#896180"/>
		<stop  offset="0.7942" style="stop-color:#7E5E7F"/>
		<stop  offset="1" style="stop-color:#7A5E7E"/>
	</linearGradient>
	<path class="st87" d="M623.5,395.4c-4-24.9-7.9-49.8-12-74.7c-16.7-1.4-31-2.7-42.1-3.9c-37.8-3.7-46.7-4.8-53.8-12
		c-3.5-3.6-11.8-14.4-7.5-40c16-5.4,32.1-10.9,48.1-16.3c4.4,4.8,8.9,9.6,13.2,14.4c8.2,0.9,20.3,2.3,34.8,4.7
		c32.5,5.3,39.6,8.3,44.3,14.2c6.3,7.9,5.8,18,4.8,28.4c-1.8,19.7-5.9,48.6-16.1,85.3C632.8,395.5,628.1,395.4,623.5,395.4z"/>
	
		<linearGradient id="SVGID_65_" gradientUnits="userSpaceOnUse" x1="7631.9302" y1="8139.9019" x2="7738.333" y2="8139.9019" gradientTransform="matrix(0.9436 -0.3312 0.3312 0.9436 -9361.3887 -4944.0649)">
		<stop  offset="0" style="stop-color:#EC6B48"/>
		<stop  offset="0.6452" style="stop-color:#F5A945"/>
	</linearGradient>
	<path class="st88" d="M556,163.7c6.4,5.6,14.6,11.6,24.6,16.9c25.3,13.3,49.4,15.2,63.4,15c0,4.5,0,9,0.1,13.5
		c-9,3.9-16.9,5.8-22.7,6.8c-3.7,0.6-21.9,3.8-42.9-1.3c-4.4-1-8.6-2.3-12.4-3.9c-8.9-3.4-15.1-7-16.7-8
		c-5.6-3.5-14.2-9.6-22.6-19.8C536.6,176.6,546.2,170.1,556,163.7z"/>
	
		<linearGradient id="SVGID_66_" gradientUnits="userSpaceOnUse" x1="10639.748" y1="-723.0948" x2="10687.8213" y2="-639.6267" gradientTransform="matrix(1 0 0 1 -10130.1445 900)">
		<stop  offset="0" style="stop-color:#EC6B48"/>
		<stop  offset="0.6452" style="stop-color:#F5A945"/>
	</linearGradient>
	<path class="st89" d="M506.9,266.9c0.9-14.8,1.9-28,3.1-39.5c3.3-36.1,6-50.3,17-61.2c3.1-3.1,6-5.1,7.9-6.3
		c1.8,1.3,5.7,3.7,11.2,4.4c4.5,0.5,8-0.3,10.1-0.9c1.3,2.1,3.3,5.4,5.3,9.7c6.8,14.1,9,27.2,11.3,60.2c0.7,9.4,1.4,21.1,2,34.5
		c-11.8,1.1-25,1.7-39.6,1.3C525.2,268.7,515.7,268,506.9,266.9z"/>
	<path class="st70" d="M537.4,145c2.5-0.1,6.9,0.1,11.7,2.1c3.4,1.4,5.9,3.3,7.5,4.8c-0.5,4.2-0.9,8.2-1.4,12.4
		c-2.2,0.7-7,1.7-12.7,0.5c-4.5-0.9-7.6-2.9-9.5-4.2C534.5,155.5,535.9,150.2,537.4,145z"/>
	<path class="st76" d="M556.3,155c-0.5-0.2-1-0.3-1.6-0.4c-0.2-0.5-0.3-1-0.5-1.5c-0.9-0.9-3.5-3-7.2-3.3c-1.4-0.1-2.7,0.1-3.7,0.3
		c0,1.5,0.3,4.2,2,6.7c2.6,4.1,7.1,5.4,10.1,5.8C555.8,160.1,556,157.5,556.3,155z"/>
	<path class="st90" d="M564.8,124.6c0.8-0.7,2.7-2.6,3.5-5.7c1.1-4.8-1.6-8.6-2.1-9.2c-0.8-1.1-1.9-2.4-3.8-3.2
		c-3.7-1.5-6.1,1-12.7,2.2c-6.4,1.2-7-0.6-11.7,1c-1.7,0.6-6.3,2.1-8.9,6.6c-3.5,6-0.5,12.9,0,14.1c-2.3,2.5-2.9,4.8-3.1,6.1
		c-0.8,6.9,6.4,13.8,13.7,15.4c4.1,0.8,7.4-0.2,8.7-0.6C561.9,146.6,564.7,125.7,564.8,124.6z"/>
	<path class="st70" d="M544.8,143.6c-1.7,0.3-2.6-0.1-3.1-0.4c-2.9-1.7-2.2-7.3-0.4-8.6c0.9-0.6,1.9-0.5,1.9-0.5
		c0.1,0,0.5,0.1,0.9,0.3c1.8,1,2.4,4,2.4,4c0.4-0.3,0.8-0.7,1.2-1c-1.8-6.6,1.2-13,6.4-15.2c5.3-2.1,10.6,1.2,11,1.5
		c0.7,1.8,1.3,3.8,2,5.8c0.9,2.9,1.5,5.5,2.1,8c0.4,0.3,0.9,0.8,0.9,1.4c0,0.6-0.4,0.9-0.8,1.6c-0.4,0.8-0.3,1.6-0.3,2.2
		c0.1,2.6-0.5,7-0.9,9.1c-0.5,2.9-0.8,4.2-1.7,5.1c-3.9,4-13.8-1.2-17.7-3.3c-1.7-0.9-4.2-2.3-4.4-4.4c0-0.4,0-1.1,0.1-2.5
		C544.7,145.4,544.8,144.3,544.8,143.6z"/>
	<path class="st90" d="M568.6,153c0.2-0.8,0.2-1.5,0.2-1.9c0.2-1.8,0.4-5.3,0.3-7.9c-1.3,0.1-12,0.6-16.5-0.4c-1.1-0.2-2-0.6-3-1.3
		c-1-0.9-1.5-2-2-3.6c-0.5-1.6-1.1-4.2-1.4-7.3c-0.9-1.6-1.4-2.4-1.7-2.3c-0.3,0.1-0.2,1.5,0.4,4.3c0.3,2.1,0.6,4.3,0.9,6.4
		c0,0-0.1-0.2-0.2-0.6c0.2,2.2,0.4,4.6,0.6,7c0.3,4.3,0.3,5.9,1.3,7.9c1,1.8,2.3,2.9,2.9,3.4c5.7,4.5,15.4,3.1,17-0.1
		C567.6,156.2,568.3,154.9,568.6,153z"/>
	<path class="st19" d="M563,148.2c0.2,3,2.7,5.2,5.6,5.2c0.1-0.5,0.1-1,0.2-1.6c0.1-1,0.3-2.4,0.3-4L563,148.2z"/>
	<g>
		<path class="st91" d="M727.1,239.1c0,0,4.4,2.9,4.5,3.6c0.1,0.7,2.7,2.3,2.9,3c0.1,0.6,2,3.6,2,3.6s2.7,1.6,2.5,2s0.8,2.9,0,3.2
			c-0.8,0.4-0.8,2-1.3,2.2c-0.5,0.2,0.5,1-0.4,1.6c-0.9,0.7-1.7,0.1-2.4,1.5c-0.7,1.5,0.4,2.4-1.1,2.6c-1.6,0.1-2.9-0.6-2.9,0.4
			c0,0.9-0.2-0.6-0.8,0.5c-0.7,1.1-1.2,1.7-1.5,1.1c-0.3-0.6-0.8-0.2-1,0.8c-0.2,1-1,0.9-1.2,0.4c-0.2-0.5-2.2,0.6-2.6-0.7
			c-0.3-1.3-1.8-3.6-2.4-2.9c-0.6,0.7-1.1,0.7-1.6,0.6c-1.5-0.5-2.2-0.8-2.2-0.8l0.1-4.3l5.7-18c0.3-0.2,0.9-0.6,1.8-0.7
			C726,238.6,726.8,238.9,727.1,239.1z"/>
		<path class="st20" d="M724.8,262c-0.4-0.7-0.3-2,0.8-2c1.1,0,0.2-1.2,0.3-2s2.6-1.3,1.8-2.2c-0.7-0.8-0.4-1.4,0.6-1.7
			c1-0.2,0.3-1.6,0.3-1.6s0-2,0.3-2.9c0.3-0.8-0.7-1.5-0.2-2.3c0.5-0.8-1-1.4-0.2-1.7c0.9-0.3,0.3-0.9-1.3-1.6
			c-1.2-0.5-0.8-3.1,0.9-4c-0.6-0.4-1-0.7-1-0.7c-0.3-0.2-1.2-0.5-2.2-0.3c-0.9,0.1-1.5,0.5-1.8,0.7l-5.7,18l-0.1,4.3
			c0,0,0.7,0.4,2.2,0.8c0.5,0.2,1,0.2,1.6-0.6c0.2-0.2,0.4-0.2,0.6,0c0.4-0.4,0.9-0.9,1.1-1.1C723.4,260.5,725.3,262.6,724.8,262z"
			/>
		<path class="st92" d="M725.9,264.2c-0.6-0.1-1.8-0.3-2.7-0.4c0.2,0.4,0.3,0.7,0.4,1.1c0.3,1.3,2.3,0.2,2.6,0.7
			c0.2,0.5,1,0.6,1.2-0.4c0.2-1,0.7-1.4,1-0.8c0.3,0.6,0.8,0,1.5-1.1c0.7-1.1,0.8,0.5,0.8-0.5c0-0.9,1.2-0.2,2.9-0.4
			c1.6-0.1,0.4-1.1,1.1-2.6c0.7-1.5,1.5-0.9,2.4-1.5c0.9-0.7-0.1-1.4,0.4-1.6c0.5-0.2,0.6-1.8,1.3-2.2c0.8-0.4-0.3-2.7,0-3.2
			c0.2-0.4-2.5-2-2.5-2s-1.9-3-2-3.6c0-0.2-0.4-0.5-0.8-0.9c-0.3,0.5-0.3,1.1-0.1,1.7c0.4,1.3,0.7,1.5,0.2,1.9
			c-0.5,0.4,0.8,2.1,1.3,2.4s-1,0.8-0.7,1.6c0.3,0.9,0.3,1.4,0,1.6c-0.3,0.2-1.1,0.3-0.9,1.2c0.2,1-0.2,1.5-0.9,2.4
			c-0.7,0.9,0.3,1.8-0.9,2.4c-1.2,0.6-1.5-0.5-2,0.3c-0.5,0.8-1.3,1.5-1.3,1.5s-1.3-0.8-1.6,0.4
			C726.3,263.7,726.8,264.3,725.9,264.2z"/>
		<path class="st93" d="M578.8,155.9c0,0,57,30.8,61.6,33.5c4.6,2.7,86.8,49.6,86.8,49.6s-4-0.7-3.4,1.5c0.5,2.2,0.5,5.7,0,6.2
			c-0.5,0.5-2.5,3.9-2.1,5.7c0.4,1.8-0.8,3.9-2.1,5.3c-1.3,1.5-2.1,3.9-2.1,3.9c-48.3-31.5-96.6-62.9-144.9-94.4
			c0-1.2,0.1-3.4,1.1-5.7C575,158.2,577.8,156.5,578.8,155.9z"/>
		<path class="st94" d="M704.6,253.5c4.2,2.7,8.5,5.5,12.6,8.2c0,0,0.8-2.4,2.1-3.9c1.3-1.5,2.5-3.5,2.1-5.3
			c-0.4-1.8,1.6-5.2,2.1-5.7c0.5-0.5,0.5-4.1,0-6.2c-0.5-2.2,3.4-1.5,3.4-1.5s-2.7-1.5-7.2-4.2c-1.9,1.9-2.3,4.3-2.9,4.5
			c-0.6,0.3-1.9,1.5-1.9,1.5s2,4.2,0.9,5.1c-1.2,0.9-1.1,1.2-1.2,3.1c-0.1,1.8-2.3,1.9-2.2,3.8C712.5,254.6,707.4,253.1,704.6,253.5
			z"/>
		<path class="st95" d="M635.5,186.7c-14.9-8.1-56.7-30.9-56.7-30.9c-1,0.6-3.8,2.3-5.3,5.7c-1.1,2.3-1.2,4.6-1.1,5.7
			c18.2,11.9,36.5,23.7,54.7,35.6C627,195.8,632.4,189.7,635.5,186.7z"/>
		<path class="st96" d="M720.4,256.6l-148-91.4c-0.1,0.9-0.1,1.6-0.1,2.2c48.3,31.5,96.6,62.9,144.9,94.4c0,0,0.8-2.4,2.1-3.9
			C719.7,257.4,720,257,720.4,256.6z"/>
	</g>
	
		<linearGradient id="SVGID_67_" gradientUnits="userSpaceOnUse" x1="7900.1006" y1="7660.0952" x2="7823.6196" y2="7561.3071" gradientTransform="matrix(0.835 -0.5502 0.5502 0.835 -10161.1445 -1822.476)">
		<stop  offset="0" style="stop-color:#EC6B48"/>
		<stop  offset="0.6452" style="stop-color:#F5A945"/>
	</linearGradient>
	<path class="st97" d="M642.2,212.4c-42.5-8.5-63.7-20.4-75.4-30c0,0-18.6-15.5-33.1-13.1c-1.1,0.2-4.1,0.7-6.4,3.1
		c-3.2,3.3-3.1,7.9-3.1,9.6c0.1,4.7,2.5,12.1,17,22.9c17.3,13,34.4,17.8,36.8,18.4c27.5,7.3,51.9,3,65.9-0.8
		C643.3,219,642.7,215.7,642.2,212.4z"/>
	<path class="st70" d="M643,212.5c0.2-0.7,0.6-1.7,1.5-2.7c0,0,0.1-0.1,0.3-0.3c0.5-0.4,1.2-0.6,3.9-1.4c0,0,1.7-0.5,5.6-1.3
		c0.6-0.1,1.5-0.3,2,0.2c0.3,0.3,0.4,0.7,0.4,1.1c-0.1,0.6-0.5,1.1-1.1,1.4c-1.5,0.5-3.1,1-4.5,1.5c4.5-0.3,8.9-0.6,13.3-0.9
		c0.8-0.1,1.5,0.5,1.5,1.2c0.1,0.7-0.4,1.3-1.1,1.4c-2.4,0.4-4.9,0.8-7.3,1.1c2.4,0,5,0,7.4,0c0.8-0.1,1.5,0.4,1.6,1.1
		c0.2,0.8-0.4,1.6-1.3,1.7c-2.4,0.2-4.9,0.4-7.3,0.6c2.3,0.1,4.8,0.2,7.1,0.3c0.7,0.1,1.3,0.7,1.3,1.3c0,0.8-0.7,1.5-1.6,1.5
		c-2.3,0.1-4.7,0.2-7,0.3c2.1,0.1,4.4,0.1,6.5,0.2c0.5,0.3,0.8,0.8,0.8,1.4c-0.1,0.6-0.4,1-1,1.2c-7.8,0.2-13.7,0.3-15.8,0.2
		c-0.5,0-1.5-0.1-2.6-0.6c-0.7-0.3-1.1-0.7-1.5-1.1c-1.5,0.4-3.1,0.7-4.5,1.1c-0.1-3.9-0.1-7.7-0.2-11.7
		C640.4,212.1,641.6,212.3,643,212.5z"/>
</g>
<g>
	<g>
		
			<linearGradient id="SVGID_68_" gradientUnits="userSpaceOnUse" x1="1718.301" y1="-738.4096" x2="1773.3488" y2="-738.4096" gradientTransform="matrix(-0.8591 -0.5119 -0.5119 0.8591 1936.923 1804.3397)">
			<stop  offset="0.3548" style="stop-color:#F7AA47"/>
			<stop  offset="1" style="stop-color:#F26C46"/>
		</linearGradient>
		<path class="st98" d="M813.8,248.7C813.9,248.7,813.9,248.7,813.8,248.7c3-0.1,6,0.2,9,1.1c7.9,2.3,14.1,7.9,17.3,15l0,0
			c0.5,1.1,1,2.3,1.3,3.6c1.5,5,1.6,10.4,0.1,15.7c-4.3,14.6-19.6,22.9-34.1,18.6c-2.5-0.7-5-1.8-7.1-3.3c0,0-0.1,0-0.1-0.1
			c-0.5-0.3-0.9-0.6-1.3-0.9l0,0c-8.6-6.3-12.9-17.2-10.6-28.1c0-0.1,0-0.1,0-0.2c0.1-0.5,0.3-1.1,0.4-1.6c0.1-0.2,0.1-0.4,0.2-0.6
			C792.4,256.6,802.6,249.3,813.8,248.7z M821.8,253.6c-1.8-0.5-3.8-0.8-5.6-0.9l2.3,13.2c0.5,2.5,3.1,4.2,5.5,3.5l12.2-3.5
			C833.5,260.2,828.3,255.6,821.8,253.6z M837.7,282.9c1.2-4.3,1.2-8.6,0.2-12.6l-11.4,6.2c-2.2,1.2-3,4.2-1.5,6.3l6.8,10.1
			C834.4,290.2,836.5,286.7,837.7,282.9z M808.5,298.7c7,2,14.2,0.7,19.9-3.1l-8.3-8.8c-1.7-1.8-4.8-1.8-6.4,0.1l-9.1,10.2
			C805.7,297.8,807.1,298.3,808.5,298.7z M813.5,281.4c3,0.8,6-0.8,6.8-3.8c0.8-3-0.8-6-3.8-6.8c-3-0.8-6,0.8-6.8,3.8
			C808.9,277.6,810.7,280.6,813.5,281.4z M800.5,294.6l5.2-11.5c1-2.3-0.1-5.1-2.5-5.9l-11.3-3.9
			C790.7,281.5,794.2,289.6,800.5,294.6z M793,268.4l12.4,1.8c2.4,0.4,4.7-1.3,5-3.9l1.5-13.5C803.4,254,795.9,259.8,793,268.4z"/>
	</g>
	<g>
		
			<linearGradient id="SVGID_69_" gradientUnits="userSpaceOnUse" x1="1710.646" y1="-738.3766" x2="1781.1665" y2="-738.3766" gradientTransform="matrix(-0.8591 -0.5119 -0.5119 0.8591 1936.923 1804.3397)">
			<stop  offset="0" style="stop-color:#F26C46"/>
			<stop  offset="0.6452" style="stop-color:#F7AA47"/>
		</linearGradient>
		<path class="st99" d="M787.8,264.5l-4.8-1.4l3.3-7.4l4.5,2.3l3.1-3.3l-3.3-3.1l6.8-5.3l2,3.8l4.7-1.7l-1.1-3.5l6.9-2.1l0.8,4.4
			c1.7-0.2,3.4-0.4,5.1-0.5l0.2-4.5l7.1,1.1l-0.6,3.6l4.9,1.1l1.5-4l7.4,4.3l-2.9,3.5l3.5,2.9l4.2-3l4.2,6.9l-4.6,2l2,4.6l4.6-2
			l2.4,7.7l-4.1,0.7l0.2,5.4l4.5,0.2l-1.1,7.1l-3.6-0.6l-2,5.3l4,1.5l-3.8,6.1l-4-1.5l-2.9,3.5l1.6,3.7l-6,3.8l-1.2-2.7l-4.6,2
			l1.6,3.7l-6.4,2.9l-2.4-5.5c-1.5,0.2-3.2,0.3-4.7,0.5l-1.7,5.8l-6.7-1.9l1.1-3.9l-4.8-1.4l-0.8,2.9l-6.4-3l1.1-3.9l-3.3-3.1
			l-3.8,2l-4.6-5.5l3.8-2l-2.7-5l-3.5,1.1l-2.1-6.9l4.4-0.8l-0.5-5.4l-4.1-0.2l1.3-7.9l4.8,1.4L787.8,264.5z M807.4,302.6
			c14.6,4.3,29.8-4.1,34.1-18.6c4.3-14.6-4.1-29.8-18.6-34.1c-14.6-4.3-29.8,4.1-34.1,18.6C784.4,283.1,792.8,298.3,807.4,302.6z"/>
	</g>
</g>
<polygon class="st1" points="7.9,613.7 26.4,623.7 44.9,633.8 44.3,612.7 43.7,591.5 25.8,602.6 "/>
<polygon class="st19" points="239.4,63 251.9,80 264.4,97 272.9,77.7 281.4,58.3 260.4,60.7 "/>
<linearGradient id="SVGID_70_" gradientUnits="userSpaceOnUse" x1="1181.5667" y1="-797.8591" x2="1254.3784" y2="-726.5526" gradientTransform="matrix(-1 0 0 1 1899.8901 900)">
	<stop  offset="0" style="stop-color:#FEFBDB"/>
	<stop  offset="0.1188" style="stop-color:#F8F5BA"/>
	<stop  offset="0.2625" style="stop-color:#F2F096"/>
	<stop  offset="0.3348" style="stop-color:#F0EE89"/>
	<stop  offset="0.4077" style="stop-color:#E1E77A"/>
	<stop  offset="0.5561" style="stop-color:#B9D650"/>
	<stop  offset="0.627" style="stop-color:#A3CE3E"/>
	<stop  offset="0.6835" style="stop-color:#96BD3E"/>
	<stop  offset="0.8923" style="stop-color:#72983D"/>
	<stop  offset="1" style="stop-color:#658B3C"/>
</linearGradient>
<circle class="st100" cx="682.5" cy="137.2" r="50.6"/>
<linearGradient id="SVGID_71_" gradientUnits="userSpaceOnUse" x1="1395.0204" y1="-825.2902" x2="1441.5389" y2="-779.7332" gradientTransform="matrix(-1 0 0 1 1899.8901 900)">
	<stop  offset="0" style="stop-color:#FEFBDB"/>
	<stop  offset="0.1188" style="stop-color:#F8F5BA"/>
	<stop  offset="0.2625" style="stop-color:#F2F096"/>
	<stop  offset="0.3348" style="stop-color:#F0EE89"/>
	<stop  offset="0.4077" style="stop-color:#E1E77A"/>
	<stop  offset="0.5561" style="stop-color:#B9D650"/>
	<stop  offset="0.627" style="stop-color:#A3CE3E"/>
	<stop  offset="0.6835" style="stop-color:#96BD3E"/>
	<stop  offset="0.8923" style="stop-color:#72983D"/>
	<stop  offset="1" style="stop-color:#658B3C"/>
</linearGradient>
<circle class="st101" cx="482" cy="97.1" r="32.4"/>
<linearGradient id="SVGID_72_" gradientUnits="userSpaceOnUse" x1="1488.3591" y1="-880.8648" x2="1520.7198" y2="-849.173" gradientTransform="matrix(-1 0 0 1 1899.8901 900)">
	<stop  offset="0" style="stop-color:#FEFBDB"/>
	<stop  offset="0.1188" style="stop-color:#F8F5BA"/>
	<stop  offset="0.2625" style="stop-color:#F2F096"/>
	<stop  offset="0.3348" style="stop-color:#F0EE89"/>
	<stop  offset="0.4077" style="stop-color:#E1E77A"/>
	<stop  offset="0.5561" style="stop-color:#B9D650"/>
	<stop  offset="0.627" style="stop-color:#A3CE3E"/>
	<stop  offset="0.6835" style="stop-color:#96BD3E"/>
	<stop  offset="0.8923" style="stop-color:#72983D"/>
	<stop  offset="1" style="stop-color:#658B3C"/>
</linearGradient>
<circle class="st102" cx="395.6" cy="34.7" r="22.5"/>
</svg>
